<svg width="124" height="124" viewBox="0 0 124 124" fill="none" xmlns="http://www.w3.org/2000/svg">
<g id="aces-logo-yellow-flat 4" clip-path="url(#clip0_66_388)">
<g id="layer1">
<path id="path9001-6" d="M32.6806 59.0576C32.6806 59.0576 23.129 41.9714 18.3202 33.2791C17.0047 30.9012 13.8291 22.2168 13.8291 22.2168C13.8291 22.2168 9.59815 27.1915 13.2445 36.477C18.6842 50.3294 27.142 59.6481 28.008 60.5464C28.5882 61.1481 30.7694 63.3648 32.5034 62.4056C34.2374 61.4463 32.6806 59.0576 32.6806 59.0576Z" fill="#E0E0E0" stroke="#2C2C2C" stroke-width="0.474609"/>
<path id="path9001-6-1" d="M32.5581 64.8793C32.5581 64.8793 20.0557 49.8175 13.7448 42.1458C12.0184 40.0471 7.31495 32.0859 7.31495 32.0859C7.31495 32.0859 4.06031 37.7477 9.3361 46.2143C17.2067 58.8449 27.2195 66.4682 28.2346 67.1938C28.9146 67.6799 31.4629 69.4625 32.9933 68.2036C34.5237 66.9447 32.5581 64.8793 32.5581 64.8793Z" fill="#E0E0E0" stroke="#2C2C2C" stroke-width="0.474609"/>
<path id="path9001-6-1-0-6-0" d="M41.928 69.691C41.928 69.691 34.4422 65.0812 30.6537 62.725C29.6173 62.0804 26.471 59.3698 26.471 59.3698C26.471 59.3698 25.9007 62.2468 29.3632 65.0901C34.5286 69.3318 39.8852 71.1349 40.4215 71.2976C40.7807 71.4066 42.1214 71.7985 42.5914 71.0427C43.0614 70.287 41.928 69.691 41.928 69.691Z" fill="#E0E0E0" stroke="#2C2C2C" stroke-width="0.445319"/>
<path id="path9001-6-1-0-6-2" d="M41.8104 79.1556C41.8104 79.1556 22.9612 73.8757 13.4076 71.154C10.794 70.4094 2.39785 66.5354 2.39785 66.5354C2.39785 66.5354 2.94029 73.0434 12.0946 77.0076C25.7512 82.9216 38.3226 83.4985 39.5702 83.5181C40.4059 83.5313 43.5158 83.5484 44.0588 81.6426C44.6018 79.7368 41.8104 79.1556 41.8104 79.1556Z" fill="#E0E0E0" stroke="#2C2C2C" stroke-width="0.474609"/>
<path id="rect8152-5-5-9" d="M91.4478 64.8793C91.4478 64.8793 103.95 49.8175 110.261 42.1458C111.987 40.0471 116.691 32.0859 116.691 32.0859C116.691 32.0859 119.946 37.7477 114.67 46.2143C106.799 58.8449 96.7864 66.4682 95.7713 67.1938C95.0913 67.6799 92.5429 69.4625 91.0126 68.2036C89.4822 66.9447 91.4478 64.8793 91.4478 64.8793Z" fill="#E0E0E0" stroke="#2C2C2C" stroke-width="0.474609"/>
<path id="rect8152-5-5-9-7-3-61" d="M82.0759 69.691C82.0759 69.691 89.5617 65.0812 93.3502 62.725C94.3866 62.0804 97.5329 59.3698 97.5329 59.3698C97.5329 59.3698 98.1032 62.2468 94.6407 65.0901C89.4753 69.3318 84.1187 71.1349 83.5824 71.2976C83.2232 71.4066 81.8825 71.7985 81.4125 71.0427C80.9425 70.287 82.0759 69.691 82.0759 69.691Z" fill="#E0E0E0" stroke="#2C2C2C" stroke-width="0.445319"/>
<path id="rect8152-5-5-9-7-3-6" d="M82.1954 79.1556C82.1954 79.1556 101.045 73.8757 110.598 71.154C113.212 70.4094 121.608 66.5354 121.608 66.5354C121.608 66.5354 121.066 73.0434 111.911 77.0076C98.2546 82.9216 85.6833 83.4985 84.4356 83.5181C83.5999 83.5313 80.49 83.5484 79.9471 81.6426C79.4041 79.7368 82.1954 79.1556 82.1954 79.1556Z" fill="#E0E0E0" stroke="#2C2C2C" stroke-width="0.474609"/>
<path id="rect8152-5-5-9-7-3-6-1" d="M83.1644 81.1403C83.1644 81.1403 99.696 79.5838 108.082 78.7567C110.376 78.5304 117.97 76.5666 117.97 76.5666C117.97 76.5666 116.533 81.9167 108.293 83.8412C95.9992 86.7123 85.4189 85.2926 84.3746 85.1204C83.675 85.0049 81.0766 84.549 80.9116 82.8761C80.7466 81.2033 83.1644 81.1403 83.1644 81.1403Z" fill="#E0E0E0" stroke="#2C2C2C" stroke-width="0.47461"/>
<path id="rect8152-5-5-9-7-3" d="M87.8307 77.294C87.8307 77.294 104.499 67.0299 112.934 61.7836C115.242 60.3484 122.247 54.313 122.247 54.313C122.247 54.313 123.517 60.719 115.808 67.0498C104.306 76.4943 92.3792 80.509 91.1852 80.8713C90.3853 81.114 87.4003 81.9865 86.3537 80.3038C85.3072 78.621 87.8307 77.294 87.8307 77.294Z" fill="#E0E0E0" stroke="#2C2C2C" stroke-width="0.474609"/>
<path id="rect8152-5" d="M88.5375 54.4184C88.5375 54.4184 94.6762 35.8312 97.7497 26.3848C98.5905 23.8006 100.062 14.6716 100.062 14.6716C100.062 14.6716 105.159 18.7538 103.34 28.5623C100.625 43.1948 94.0876 53.948 93.4076 54.9943C92.9521 55.6951 91.2307 58.2852 89.3463 57.6721C87.4619 57.0589 88.5375 54.4184 88.5375 54.4184Z" fill="#E0E0E0" stroke="#2C2C2C" stroke-width="0.474609"/>
<path id="rect8152-5-5-8" d="M83.6443 61.5006C83.6443 61.5006 87.9341 53.8269 90.0938 49.923C90.6846 48.8551 92.1109 44.9547 92.1109 44.9547C92.1109 44.9547 94.0111 47.189 92.3734 51.3593C89.9303 57.5806 86.1318 61.7658 85.7428 62.1693C85.4823 62.4395 84.5027 63.4351 83.7239 63.0042C82.9451 62.5734 83.6443 61.5006 83.6443 61.5006Z" fill="#E0E0E0" stroke="#2C2C2C" stroke-width="0.445319"/>
<path id="rect8152-5-5" d="M91.3213 59.0576C91.3213 59.0576 100.873 41.9714 105.682 33.2791C106.997 30.9012 110.173 22.2168 110.173 22.2168C110.173 22.2168 114.404 27.1915 110.757 36.477C105.318 50.3294 96.86 59.6481 95.9939 60.5464C95.4138 61.1481 93.2325 63.3648 91.4986 62.4056C89.7646 61.4463 91.3213 59.0576 91.3213 59.0576Z" fill="#E0E0E0" stroke="#2C2C2C" stroke-width="0.474609"/>
<path id="rect8152-5-5-9-7-0" d="M83.436 67.231C83.436 67.231 90.0319 61.4189 93.3662 58.4545C94.2783 57.6436 96.9195 54.4388 96.9195 54.4388C96.9195 54.4388 97.9693 57.1775 95.039 60.5667C90.6674 65.6226 85.694 68.3078 85.1931 68.559C84.8575 68.7274 83.6027 69.3408 83.0114 68.6757C82.42 68.0106 83.436 67.231 83.436 67.231Z" fill="#E0E0E0" stroke="#2C2C2C" stroke-width="0.445319"/>
<path id="rect8152-5-5-9-5" d="M83.6995 64.1153C83.6995 64.1153 89.3145 57.3508 92.1488 53.9053C92.9242 52.9627 95.0366 49.3872 95.0366 49.3872C95.0366 49.3872 96.4983 51.93 94.1289 55.7325C90.5941 61.4052 86.0971 64.8289 85.6412 65.1548C85.3358 65.3731 84.1913 66.1737 83.504 65.6083C82.8167 65.0429 83.6995 64.1153 83.6995 64.1153Z" fill="#E0E0E0" stroke="#2C2C2C" stroke-width="0.445319"/>
<path id="rect8152-5-5-9-7" d="M90.8565 71.8164C90.8565 71.8164 105.543 58.8752 112.967 52.2748C114.998 50.4691 120.879 43.3334 120.879 43.3334C120.879 43.3334 123.216 49.4314 116.692 56.9776C106.958 68.2352 95.8841 74.2138 94.7688 74.7733C94.0217 75.1481 91.2278 76.514 89.9111 75.033C88.5944 73.5521 90.8565 71.8164 90.8565 71.8164Z" fill="#E0E0E0" stroke="#2C2C2C" stroke-width="0.474609"/>
<path id="rect8152-5-5-9-7-3-6-6" d="M79.5454 70.5271C79.5454 70.5271 88.0109 68.1558 92.3016 66.9334C93.4754 66.599 97.2463 64.8591 97.2463 64.8591C97.2463 64.8591 97.0026 67.7819 92.8913 69.5624C86.7578 72.2184 81.1118 72.4775 80.5515 72.4863C80.1761 72.4922 78.7794 72.4999 78.5356 71.644C78.2917 70.7881 79.5454 70.5271 79.5454 70.5271Z" fill="#E0E0E0" stroke="#2C2C2C" stroke-width="0.445319"/>
<path id="rect8152-5-5-9-7-3-6-1-2" d="M79.9798 71.4182C79.9798 71.4182 87.4044 70.7192 91.1707 70.3477C92.201 70.2461 95.6116 69.3641 95.6116 69.3641C95.6116 69.3641 94.9662 71.767 91.2653 72.6313C85.7441 73.9207 80.9923 73.2831 80.5233 73.2058C80.2091 73.1539 79.0421 72.9492 78.968 72.1978C78.8939 71.4465 79.9798 71.4182 79.9798 71.4182Z" fill="#E0E0E0" stroke="#2C2C2C" stroke-width="0.445342"/>
<path id="rect8152-5-5-9-7-3-6-1-9-0" d="M82.2864 71.1163C82.2864 71.1163 87.7183 72.3057 90.4775 72.8971C91.2323 73.0589 93.8549 73.2069 93.8549 73.2069C93.8549 73.2069 92.8509 74.767 90.0262 74.5404C85.8121 74.2025 82.582 72.6707 82.2665 72.5093C82.0551 72.4011 81.2728 71.9907 81.3908 71.4402C81.5087 70.8898 82.2864 71.1163 82.2864 71.1163Z" fill="#E0E0E0" stroke="#2C2C2C" stroke-width="0.445319"/>
<path id="rect8152-5-5-9-7-3-6-1-9-2-6" d="M81.4312 71.0589C81.4312 71.0589 86.2635 73.8102 88.7219 75.1955C89.3944 75.5745 91.8543 76.4959 91.8543 76.4959C91.8543 76.4959 90.4318 77.6866 87.8022 76.6302C83.8794 75.0542 81.2511 72.6309 80.9979 72.3829C80.8282 72.2168 80.2034 71.5922 80.4797 71.1018C80.7561 70.6114 81.4312 71.0589 81.4312 71.0589Z" fill="#E0E0E0" stroke="#2C2C2C" stroke-width="0.445319"/>
<path id="rect8152-5-5-9-7-3-6-1-9" d="M88.302 80.4675C88.302 80.4675 100.397 83.1159 106.54 84.4327C108.221 84.7929 114.06 85.1225 114.06 85.1225C114.06 85.1225 111.825 88.596 105.535 88.0917C96.1524 87.3393 88.9603 83.9285 88.2577 83.569C87.7871 83.3282 86.0452 82.4144 86.3079 81.1888C86.5706 79.9632 88.302 80.4675 88.302 80.4675Z" fill="#E0E0E0" stroke="#2C2C2C" stroke-width="0.474609"/>
<path id="rect8152-5-5-9-7-3-6-1-9-2-5-5" d="M80.979 70.7136C80.979 70.7136 84.9069 74.6496 86.9091 76.6382C87.4568 77.1822 89.5835 78.7239 89.5835 78.7239C89.5835 78.7239 87.8958 79.494 85.6413 77.777C82.278 75.2156 80.3879 72.1813 80.2096 71.8749C80.0902 71.6697 79.6537 70.9016 80.0504 70.5022C80.4471 70.1028 80.979 70.7136 80.979 70.7136Z" fill="url(#paint0_linear_66_388)" stroke="#A37B33" stroke-width="0.445319"/>
<path id="rect8152-5-5-9-7-3-6-1-9-2" d="M86.3916 80.3399C86.3916 80.3399 97.1511 86.4658 102.625 89.5503C104.123 90.3942 109.6 92.4457 109.6 92.4457C109.6 92.4457 106.432 95.0971 100.577 92.7448C91.8428 89.2357 85.9907 83.8401 85.4268 83.2879C85.0491 82.918 83.6579 81.5274 84.2732 80.4354C84.8885 79.3434 86.3916 80.3399 86.3916 80.3399Z" fill="#E0E0E0" stroke="#2C2C2C" stroke-width="0.474609"/>
<path id="rect8152-5-5-9-7-3-6-1-9-2-5-2-4" d="M82.1579 73.1509C82.1579 73.1509 84.2635 76.498 85.3396 78.1919C85.634 78.6552 86.8667 80.0587 86.8667 80.0587C86.8667 80.0587 85.5751 80.3276 84.2814 78.7825C82.3513 76.4775 81.5173 74.0759 81.4418 73.8354C81.3912 73.6743 81.2092 73.073 81.5471 72.8584C81.885 72.6437 82.1579 73.1509 82.1579 73.1509Z" fill="url(#paint1_linear_66_388)" stroke="#A37B33" stroke-width="0.445318"/>
<path id="rect8152-5-5-9-7-3-6-1-9-2-5" d="M85.3885 80.0553C85.3885 80.0553 94.1343 88.8191 98.5923 93.2469C99.8118 94.4582 104.547 97.8909 104.547 97.8909C104.547 97.8909 100.789 99.6057 95.7695 95.7827C88.2809 90.0794 84.0723 83.3232 83.6753 82.6411C83.4094 82.1841 82.4376 80.4739 83.3208 79.5846C84.2041 78.6953 85.3885 80.0553 85.3885 80.0553Z" fill="#E0E0E0" stroke="#2C2C2C" stroke-width="0.474609"/>
<path id="path9001-6-1-0-6-2-8-2-3" d="M37.6103 80.3399C37.6103 80.3399 26.8508 86.4658 21.3769 89.5503C19.8794 90.3942 14.4023 92.4457 14.4023 92.4457C14.4023 92.4457 17.5697 95.0971 23.4247 92.7448C32.1592 89.2357 38.0112 83.8401 38.5751 83.2879C38.9528 82.918 40.3441 81.5274 39.7288 80.4354C39.1134 79.3434 37.6103 80.3399 37.6103 80.3399Z" fill="#E0E0E0" stroke="#2C2C2C" stroke-width="0.474609"/>
<path id="path9001-9" d="M41.6093 59.4173C41.6093 59.4173 38.8523 51.0694 37.472 46.8269C37.0944 45.6663 36.4335 41.5663 36.4335 41.5663C36.4335 41.5663 34.1442 43.3997 34.9614 47.8048C36.1806 54.3766 39.1167 59.206 39.4221 59.6759C39.6267 59.9907 40.3998 61.1539 41.2461 60.8786C42.0924 60.6032 41.6093 59.4173 41.6093 59.4173Z" fill="#E0E0E0" stroke="#2C2C2C" stroke-width="0.445319"/>
<path id="path9001" d="M35.4664 54.4184C35.4664 54.4184 29.3277 35.8312 26.2542 26.3848C25.4134 23.8006 23.942 14.6716 23.942 14.6716C23.942 14.6716 18.8446 18.7538 20.6642 28.5623C23.3788 43.1948 29.9163 53.948 30.5963 54.9943C31.0518 55.6951 32.7732 58.2852 34.6576 57.6721C36.542 57.0589 35.4664 54.4184 35.4664 54.4184Z" fill="#E0E0E0" stroke="#2C2C2C" stroke-width="0.474609"/>
<path id="path9001-6-4" d="M40.3596 61.5006C40.3596 61.5006 36.0698 53.8269 33.9101 49.923C33.3193 48.8551 31.893 44.9547 31.893 44.9547C31.893 44.9547 29.9928 47.189 31.6305 51.3593C34.0736 57.5806 37.8721 61.7658 38.2611 62.1693C38.5216 62.4395 39.5012 63.4351 40.28 63.0042C41.0588 62.5734 40.3596 61.5006 40.3596 61.5006Z" fill="#E0E0E0" stroke="#2C2C2C" stroke-width="0.445319"/>
<path id="path9001-6-1-6" d="M40.3025 64.1153C40.3025 64.1153 34.6874 57.3508 31.8531 53.9053C31.0777 52.9627 28.9653 49.3872 28.9653 49.3872C28.9653 49.3872 27.5036 51.93 29.8731 55.7325C33.4079 61.4052 37.9048 64.8289 38.3607 65.1548C38.6661 65.3731 39.8106 66.1737 40.4979 65.6083C41.1853 65.0429 40.3025 64.1153 40.3025 64.1153Z" fill="#E0E0E0" stroke="#2C2C2C" stroke-width="0.445319"/>
<path id="path9001-6-1-0-3" d="M40.5679 67.231C40.5679 67.231 33.972 61.4189 30.6377 58.4545C29.7256 57.6436 27.0844 54.4388 27.0844 54.4388C27.0844 54.4388 26.0346 57.1775 28.9649 60.5667C33.3365 65.6226 38.3099 68.3078 38.8108 68.559C39.1464 68.7274 40.4012 69.3408 40.9925 68.6757C41.5839 68.0106 40.5679 67.231 40.5679 67.231Z" fill="#E0E0E0" stroke="#2C2C2C" stroke-width="0.445319"/>
<path id="path9001-6-1-0" d="M33.1475 71.8164C33.1475 71.8164 18.461 58.8752 11.037 52.2748C9.00606 50.4691 3.12511 43.3334 3.12511 43.3334C3.12511 43.3334 0.78766 49.4314 7.31236 56.9776C17.0461 68.2352 28.1198 74.2138 29.2351 74.7733C29.9822 75.1481 32.7761 76.514 34.0928 75.033C35.4095 73.5521 33.1475 71.8164 33.1475 71.8164Z" fill="#E0E0E0" stroke="#2C2C2C" stroke-width="0.474609"/>
<path id="path9001-6-1-0-6-2-3" d="M44.4585 70.5271C44.4585 70.5271 35.993 68.1558 31.7023 66.9334C30.5285 66.599 26.7576 64.8591 26.7576 64.8591C26.7576 64.8591 27.0013 67.7819 31.1126 69.5624C37.2461 72.2184 42.8921 72.4775 43.4524 72.4863C43.8278 72.4922 45.2245 72.4999 45.4683 71.644C45.7122 70.7881 44.4585 70.5271 44.4585 70.5271Z" fill="#E0E0E0" stroke="#2C2C2C" stroke-width="0.445319"/>
<path id="path9001-6-1-0-6-2-8-5" d="M44.0222 71.4182C44.0222 71.4182 36.5975 70.7192 32.8313 70.3477C31.801 70.2461 28.3904 69.3641 28.3904 69.3641C28.3904 69.3641 29.0357 71.767 32.7367 72.6313C38.2578 73.9207 43.0096 73.2831 43.4787 73.2058C43.7929 73.1539 44.9598 72.9492 45.0339 72.1978C45.108 71.4465 44.0222 71.4182 44.0222 71.4182Z" fill="#E0E0E0" stroke="#2C2C2C" stroke-width="0.445319"/>
<path id="path9001-6-1-0-6" d="M36.1732 77.294C36.1732 77.294 19.5053 67.0299 11.0698 61.7836C8.7622 60.3484 1.75664 54.313 1.75664 54.313C1.75664 54.313 0.486825 60.719 8.19639 67.0498C19.6977 76.4943 31.6247 80.509 32.8187 80.8713C33.6186 81.114 36.6036 81.9865 37.6502 80.3038C38.6967 78.621 36.1732 77.294 36.1732 77.294Z" fill="#E0E0E0" stroke="#2C2C2C" stroke-width="0.474609"/>
<path id="path9001-6-1-0-6-2-8-2-6" d="M41.7156 71.1163C41.7156 71.1163 36.2837 72.3057 33.5244 72.8971C32.7696 73.0589 30.147 73.2069 30.147 73.2069C30.147 73.2069 31.151 74.767 33.9758 74.5404C38.1898 74.2025 41.4199 72.6707 41.7355 72.5093C41.9468 72.4011 42.7292 71.9907 42.6112 71.4402C42.4932 70.8898 41.7156 71.1163 41.7156 71.1163Z" fill="#E0E0E0" stroke="#2C2C2C" stroke-width="0.445319"/>
<path id="path9001-6-1-0-6-2-8-2-3-9-5" d="M43.0249 70.7136C43.0249 70.7136 39.097 74.6496 37.0948 76.6382C36.5471 77.1822 34.4204 78.7239 34.4204 78.7239C34.4204 78.7239 36.1081 79.494 38.3626 77.777C41.7259 75.2156 43.616 72.1813 43.7943 71.8749C43.9137 71.6697 44.3502 70.9016 43.9535 70.5022C43.5568 70.1028 43.0249 70.7136 43.0249 70.7136Z" fill="url(#paint2_linear_66_388)" stroke="#A37B33" stroke-width="0.445319"/>
<path id="path9001-6-1-0-6-2-8-2-3-1" d="M42.5747 71.0589C42.5747 71.0589 37.7424 73.8102 35.284 75.1955C34.6114 75.5745 32.1516 76.4959 32.1516 76.4959C32.1516 76.4959 33.5741 77.6866 36.2036 76.6302C40.1265 75.0542 42.7547 72.6309 43.008 72.3829C43.1776 72.2168 43.8025 71.5922 43.5261 71.1018C43.2498 70.6114 42.5747 71.0589 42.5747 71.0589Z" fill="#E0E0E0" stroke="#2C2C2C" stroke-width="0.445319"/>
<path id="path9001-6-1-0-6-2-8-2-3-9-8-7" d="M41.846 73.1509C41.846 73.1509 39.7404 76.498 38.6643 78.1919C38.3699 78.6552 37.1372 80.0587 37.1372 80.0587C37.1372 80.0587 38.4288 80.3276 39.7225 78.7825C41.6526 76.4775 42.4866 74.0759 42.5621 73.8354C42.6127 73.6743 42.7947 73.073 42.4568 72.8584C42.1189 72.6437 41.846 73.1509 41.846 73.1509Z" fill="url(#paint3_linear_66_388)" stroke="#A37B33" stroke-width="0.445318"/>
<path id="rect8152-5-7" d="M82.3946 59.4173C82.3946 59.4173 85.1516 51.0694 86.5319 46.8269C86.9095 45.6663 87.5704 41.5663 87.5704 41.5663C87.5704 41.5663 89.8597 43.3997 89.0425 47.8048C87.8233 54.3766 84.8872 59.206 84.5818 59.6759C84.3772 59.9907 83.6041 61.1539 82.7578 60.8786C81.9115 60.6032 82.3946 59.4173 82.3946 59.4173Z" fill="#E0E0E0" stroke="#2C2C2C" stroke-width="0.445319"/>
<path id="path362" d="M62.0746 52.3032C55.8896 58.4882 44.9914 58.5548 36.9724 58.5548C36.9724 78.1413 30.9634 88.8949 62.0746 109.365C93.1858 88.8949 87.1768 78.1413 87.1768 58.5548C79.1578 58.5548 68.2596 58.4882 62.0746 52.3032Z" fill="#2C2C2C" stroke="#E0E0E0" stroke-width="0.593759"/>
<path id="path362-5" d="M62.0743 54.1587C56.2919 59.9411 46.1031 60.0033 38.6061 60.0033C38.6061 78.3149 32.9883 88.3684 62.0743 107.506C91.1603 88.3684 85.5424 78.3149 85.5424 60.0033C78.0454 60.0033 67.8567 59.9411 62.0743 54.1587Z" fill="#E0E0E0" stroke="#E0E0E0" stroke-width="0.555108"/>
<path id="path9001-6-1-0-6-2-8" d="M40.8395 81.1403C40.8395 81.1403 24.3079 79.5838 15.922 78.7567C13.6279 78.5304 6.03393 76.5666 6.03393 76.5666C6.03393 76.5666 7.47088 81.9167 15.7113 83.8412C28.0047 86.7123 38.585 85.2926 39.6293 85.1204C40.3289 85.0049 42.9273 84.549 43.0923 82.8761C43.2573 81.2033 40.8395 81.1403 40.8395 81.1403Z" fill="#E0E0E0" stroke="#2C2C2C" stroke-width="0.47461"/>
<path id="path9001-6-1-0-6-2-8-2-3-9" d="M38.6173 80.0553C38.6173 80.0553 29.8716 88.8191 25.4136 93.2469C24.1941 94.4582 19.4587 97.8909 19.4587 97.8909C19.4587 97.8909 23.2166 99.6057 28.2364 95.7827C35.725 90.0794 39.9336 83.3232 40.3305 82.6411C40.5964 82.1841 41.5683 80.4739 40.685 79.5846C39.8017 78.6953 38.6173 80.0553 38.6173 80.0553Z" fill="#E0E0E0" stroke="#2C2C2C" stroke-width="0.474609"/>
<path id="rect8152-5-5-9-7-3-6-1-9-2-5-2" d="M88.0136 84.9977C88.0136 84.9977 92.702 92.4504 95.0979 96.2219C95.7534 97.2536 98.4981 100.379 98.4981 100.379C98.4981 100.379 95.6224 100.977 92.7417 97.537C88.4443 92.4046 86.5871 87.0574 86.4191 86.5219C86.3065 86.1632 85.9012 84.8243 86.6535 84.3464C87.4059 83.8684 88.0136 84.9977 88.0136 84.9977Z" fill="#E0E0E0" stroke="#2C2C2C" stroke-width="0.47461"/>
<path id="path9001-6-1-0-6-2-8-2" d="M35.7019 80.4675C35.7019 80.4675 23.6073 83.1159 17.4636 84.4327C15.7829 84.7929 9.94352 85.1225 9.94352 85.1225C9.94352 85.1225 12.1789 88.596 18.4685 88.0917C27.8515 87.3393 35.0436 83.9285 35.7462 83.569C36.2168 83.3282 37.9587 82.4144 37.696 81.1888C37.4333 79.9632 35.7019 80.4675 35.7019 80.4675Z" fill="#E0E0E0" stroke="#2C2C2C" stroke-width="0.474609"/>
<path id="path9001-6-1-0-6-2-8-2-3-9-8" d="M35.9903 84.9977C35.9903 84.9977 31.3019 92.4504 28.906 96.2219C28.2505 97.2536 25.5058 100.379 25.5058 100.379C25.5058 100.379 28.3816 100.977 31.2622 97.537C35.5597 92.4046 37.4168 87.0574 37.5848 86.5219C37.6974 86.1632 38.1027 84.8243 37.3504 84.3464C36.598 83.8684 35.9903 84.9977 35.9903 84.9977Z" fill="#E0E0E0" stroke="#2C2C2C" stroke-width="0.47461"/>
<g id="g9">
<path id="path11" fill-rule="evenodd" clip-rule="evenodd" d="M63.181 97.3874C59.1341 97.502 54.5973 97.3249 49.4145 96.856C44.1925 96.3665 38.5796 95.5847 32.2218 94.5115V90.6561C28.5464 89.9788 25.3263 89.3327 22.4291 88.6033C19.5318 87.8736 17.0898 87.1341 14.9707 86.3419C17.3051 85.6125 19.4076 84.8935 21.4688 84.2996C23.4969 83.6952 25.3677 83.1013 27.1143 82.6324C24.6724 80.9964 22.5118 79.3813 20.5003 77.7871C18.4807 76.1514 16.7424 74.6197 15.153 73.0254C18.7291 73.9947 21.9823 74.8388 25.012 75.5158C28.0169 76.1931 29.838 76.5366 33.1905 77.11C36.5516 77.6623 40.433 78.2041 45.0272 78.7772V82.8619C47.5519 83.1849 50.2767 83.4347 53.3212 83.6121C56.361 83.7684 59.564 83.8833 63.1235 83.9143H63.2385C66.7911 83.8833 69.9942 83.7684 73.0409 83.6121C76.0692 83.435 78.8009 83.1849 81.3348 82.8619V78.7772C85.9199 78.2044 89.8036 77.6623 93.1722 77.11C96.5247 76.5369 98.3114 76.1931 101.351 75.5158C104.38 74.8385 107.601 73.9945 111.202 73.0254C109.604 74.6197 107.865 76.1514 105.853 77.7873C103.835 79.3816 101.664 80.9967 99.2472 82.6327C100.986 83.1016 102.857 83.6955 104.892 84.2999C106.913 84.8938 109.066 85.6128 111.384 86.3422C109.263 87.1341 106.821 87.8739 103.933 88.6036C101.02 89.333 97.8147 89.9791 94.1311 90.6564V94.5118C87.7916 95.585 82.1373 96.3665 76.9476 96.8563C71.7578 97.3249 67.2211 97.5023 63.181 97.3874Z" fill="#E0E0E0"/>
<path id="path11-6" fill-rule="evenodd" clip-rule="evenodd" d="M63.181 98.2307C59.1341 98.3454 54.5973 98.1682 49.4145 97.6993C44.1925 97.2099 38.5796 96.4281 32.2218 95.3548V91.4994C28.5464 90.8221 25.3263 90.176 22.4291 89.4466C19.5318 88.7169 17.0898 87.9774 14.9707 87.1852C17.3051 86.4558 19.4076 85.7368 21.4688 85.1429C23.4969 84.5385 25.3677 83.9445 27.1143 83.4756C24.6724 81.8397 22.5118 80.2246 20.5003 78.6303C18.4807 76.9947 16.7424 75.4629 15.153 73.8687C18.7291 74.838 21.9823 75.682 25.012 76.359C28.0169 77.0363 29.838 77.3799 33.1905 77.9533C36.5516 78.5056 40.433 79.0474 45.0272 79.6205V83.7052C47.5519 84.0282 50.2767 84.278 53.3212 84.4554C56.361 84.6117 59.564 84.7266 63.1235 84.7576H63.2385C66.7911 84.7266 69.9942 84.6117 73.0409 84.4554C76.0692 84.2783 78.8009 84.0282 81.3348 83.7052V79.6205C85.9199 79.0477 89.8036 78.5056 93.1722 77.9533C96.5247 77.3802 98.3114 77.0363 101.351 76.359C104.38 75.6817 107.601 74.8377 111.202 73.8687C109.604 75.4629 107.865 76.9947 105.853 78.6306C103.835 80.2249 101.664 81.84 99.2472 83.4759C100.986 83.9448 102.857 84.5388 104.892 85.1431C106.913 85.7371 109.066 86.4561 111.384 87.1855C109.263 87.9774 106.821 88.7172 103.933 89.4469C101.02 90.1763 97.8147 90.8224 94.1311 91.4997V95.3551C87.7916 96.4284 82.1373 97.2099 76.9476 97.6996C71.7578 98.1682 67.2211 98.3456 63.181 98.2307Z" fill="#E0E0E0"/>
</g>
<path id="path15" fill-rule="evenodd" clip-rule="evenodd" d="M16.5931 73.8076C18.2156 74.3807 20.2188 74.9422 22.6691 75.5385C25.1276 76.1319 27.7848 76.7136 31.2201 77.3302C34.6389 77.9119 38.5219 78.4764 43.0563 79.0582C41.6836 79.1739 40.1361 79.4229 38.2896 79.8107C36.434 80.2044 34.4154 80.6733 32.0976 81.3303V89.9587C30.3261 89.6356 28.1821 89.1355 25.5746 88.5728C22.9422 88 20.0036 87.2494 16.5352 86.4361C19.1758 85.4983 21.4439 84.7805 23.4389 84.164C25.4421 83.5619 27.0232 83.122 28.3725 82.8528C26.7666 81.8513 25.0365 80.6212 23.0581 79.1218C21.088 77.6109 18.9438 75.8395 16.5931 73.8076Z" fill="#2C2C2C" stroke="black" stroke-width="0.0121335" stroke-miterlimit="10"/>
<path id="path17" fill-rule="evenodd" clip-rule="evenodd" d="M33.7441 81.4026L44.6468 79.0581V82.7051C42.8257 82.5488 41.062 82.3838 39.2248 82.1639C37.3944 81.9352 35.5899 81.695 33.7441 81.4026Z" fill="#2C2C2C" stroke="#2C2C2C" stroke-width="0.0121335" stroke-miterlimit="10"/>
<path id="path19" fill-rule="evenodd" clip-rule="evenodd" d="M109.77 73.8076C108.13 74.3807 106.144 74.9422 103.686 75.5385C101.202 76.1319 98.5534 76.7136 95.1342 77.3302C91.7081 77.9119 87.8244 78.4764 83.2969 79.0582C84.6558 79.1739 86.2102 79.4229 88.0658 79.8107C89.91 80.2044 91.9312 80.6733 94.2582 81.3303V89.9587C96.0195 89.6356 98.1648 89.1355 100.779 88.5728C103.396 88 106.36 87.2494 109.827 86.4361C107.172 85.4983 104.911 84.7805 102.925 84.164C100.913 83.5619 99.3306 83.122 97.9901 82.8528C99.579 81.8513 101.32 80.6212 103.304 79.1218C105.265 77.6109 107.411 75.8395 109.77 73.8076Z" fill="#2C2C2C" stroke="black" stroke-width="0.0121335" stroke-miterlimit="10"/>
<path id="path21" fill-rule="evenodd" clip-rule="evenodd" d="M92.6177 81.4026L81.707 79.0581V82.7051C83.5121 82.5488 85.2987 82.3838 87.1359 82.1639C88.9571 81.9352 90.7621 81.695 92.6177 81.4026Z" fill="#2C2C2C" stroke="black" stroke-width="0.0121335" stroke-miterlimit="10"/>
<path id="path23" fill-rule="evenodd" clip-rule="evenodd" d="M62.7342 96.8564C60.1749 96.8984 57.2524 96.8043 53.7435 96.5751C50.2093 96.2937 45.415 95.8665 41.8555 95.408C38.3052 94.9391 35.2509 94.4702 32.5938 93.8867V81.7471C35.2013 82.216 37.8339 82.6444 40.5909 82.9888C43.3456 83.3014 45.2587 83.5619 48.9745 83.8108C52.6766 84.0395 57.1627 84.2479 62.6261 84.436H63.7344C69.1978 84.2479 73.6609 84.0395 77.3768 83.8108C81.0512 83.5619 82.9965 83.3014 85.7627 82.9888C88.5105 82.6444 91.1342 82.216 93.767 81.7471V93.8867C91.0928 94.4702 88.0461 94.9391 84.505 95.408C80.9271 95.8665 76.1098 96.294 72.6078 96.5751C69.0897 96.8043 66.1603 96.8981 63.6263 96.8564H62.7342Z" fill="#2C2C2C" stroke="black" stroke-width="0.0121335" stroke-miterlimit="10"/>
<path id="text233" d="M46.9437 86.0247L44.1368 85.7129L44.7044 86.4893L43.3317 89.214C43.2899 89.1618 43.2156 89.0822 43.0564 88.91C42.8763 88.7116 42.8228 88.6581 42.7249 88.4689C42.6884 88.5837 42.3308 89.1266 42.1012 89.3745C42.5187 89.4685 42.7106 89.5611 43.0029 89.8195C42.1364 91.8395 41.3117 92.8417 40.1777 93.2031L43.2312 93.5424L43.1386 93.4132C42.6923 92.8286 42.6088 92.6172 42.6584 92.1709C42.7001 91.7951 42.7001 91.7951 43.4518 90.1666C43.8289 90.6246 44.1982 91.2601 44.6314 92.1762C44.7867 91.9556 45.1899 91.5367 45.5305 91.2536L45.9872 90.8882L46.5862 93.2018L45.6741 93.8138L48.7511 94.1557L47.9133 93.3492L47.116 90.1457C47.39 90.0335 47.5949 90.0087 47.9237 90.0452C48.0294 90.0569 48.0999 90.0648 48.2747 90.0961C48.1468 89.856 47.955 89.2283 47.9106 88.8786C47.6562 89.1357 47.3495 89.3275 46.9463 89.5324L46.2195 86.6576L46.9437 86.0247ZM45.0189 87.0831L45.8332 90.2409C45.5996 90.4171 45.3765 90.6063 45.2304 90.7447C44.9485 91.0343 44.788 91.1949 44.7358 91.2366L44.6875 91.1361C44.3326 90.4785 44.1094 90.1327 43.7271 89.6146L45.0189 87.0831ZM50.8053 92.7462C50.3457 92.7124 49.9661 93.0399 49.9331 93.4877C49.901 93.9237 50.2285 94.3033 50.6646 94.3354C51.1124 94.3684 51.492 94.0409 51.5241 93.6048C51.557 93.157 51.2295 92.7775 50.8053 92.7462ZM59.9557 86.8356C59.5914 87.069 59.4355 87.1218 59.1639 87.1107C58.9396 87.1015 58.7408 87.046 58.4037 86.9021C57.6829 86.6005 57.4374 86.5314 56.8942 86.5091C54.8989 86.4273 53.3864 88.1274 53.2862 90.5714C53.2364 91.7875 53.5569 92.9123 54.1763 93.671C54.7164 94.3435 55.5987 94.7463 56.5904 94.787C57.7829 94.8359 58.6543 94.3512 59.0462 93.4448C59.1906 93.0959 59.3044 92.6275 59.317 92.3206C59.3272 92.0726 59.2503 91.9276 59.0968 91.9213C58.967 91.9159 58.9045 91.9962 58.8737 92.1723C58.6985 93.5607 57.9459 94.3222 56.8242 94.2762C55.3248 94.2147 54.5309 92.8103 54.6301 90.39C54.678 89.2211 54.8894 88.3901 55.3042 87.7921C55.632 87.297 56.2241 86.9902 56.779 87.0129C57.3457 87.0361 57.9456 87.4037 58.2323 87.9121C58.4411 88.2992 58.555 88.6941 58.613 89.2996C59.0428 88.3356 59.2855 87.8962 59.9557 86.8356ZM61.8753 93.1993C61.4145 93.1951 61.0568 93.5463 61.0527 93.9953C61.0486 94.4325 61.3999 94.7903 61.8371 94.7943C62.2861 94.7984 62.6438 94.4471 62.6478 94.0099C62.6519 93.5609 62.3007 93.2032 61.8753 93.1993ZM64.0549 86.867L64.9331 87.5565L64.9931 90.2382C64.2843 90.2541 63.8895 90.5702 63.7265 91.2121C64.0974 90.8847 64.4726 90.7463 65.0044 90.7462L65.0776 94.0186L64.231 94.7467L71.0356 94.5946C70.3118 93.937 70.0172 93.4472 69.8091 92.6009C69.4805 93.2346 69.2511 93.5471 68.9603 93.7545C68.5996 94.0108 67.9409 94.1555 67.114 94.174C66.9132 94.1785 66.7475 94.1704 66.2981 94.1568L66.2212 90.719L67.8869 90.6818L68.6996 91.6092L68.646 89.211L67.8756 90.1738L66.2099 90.211L66.1462 87.364C66.5946 87.3303 66.9015 87.3116 67.3268 87.3021C68.5672 87.2744 68.9143 87.4676 69.3731 88.4265C69.4101 88.4966 69.4469 88.5549 69.4721 88.6252C69.7602 87.7678 69.9421 87.4446 70.5288 86.7223L64.0549 86.867ZM73.0483 92.9482C72.5881 92.973 72.2532 93.346 72.2773 93.7944C72.3008 94.231 72.6739 94.5659 73.1104 94.5424C73.5588 94.5183 73.8938 94.1453 73.8703 93.7087C73.8461 93.2603 73.4731 92.9254 73.0483 92.9482ZM80.5957 86.0712C80.2416 86.2316 80.069 86.2937 79.8688 86.3106C79.7276 86.3225 79.548 86.3022 79.2211 86.2231C78.4839 86.0601 78.0413 86.0145 77.4879 86.0613C76.0278 86.1848 75.0939 87.2006 75.2074 88.5429C75.2542 89.0963 75.4716 89.5641 75.8332 89.913C76.2065 90.2609 76.7082 90.4438 77.5826 90.5477C78.6956 90.6671 79.0578 90.7432 79.4771 90.933C80.0082 91.1846 80.3572 91.665 80.401 92.1831C80.4737 93.0426 79.8268 93.6666 78.7553 93.7572C77.778 93.8398 76.9092 93.5219 76.4541 92.9082C76.2801 92.6739 76.1915 92.4679 76.0005 91.8911C75.9157 92.4319 75.411 93.7553 75.0604 94.3779C75.4614 94.0713 75.7125 93.9552 75.948 93.9352C76.1128 93.9213 76.3395 93.9377 76.6173 93.9972C77.8492 94.2607 78.2447 94.3102 78.8217 94.2615C80.3877 94.129 81.4991 92.9678 81.3816 91.5784C81.3358 91.0368 81.1183 90.5689 80.742 90.1857C80.3412 89.7927 79.813 89.5765 78.9718 89.446C77.4937 89.2152 77.4937 89.2152 77.1137 89.0695C76.5875 88.8768 76.2966 88.5219 76.2528 88.0038C76.1881 87.2385 76.7654 86.6323 77.6367 86.5586C78.3314 86.4999 79.0354 86.8317 79.3795 87.3955C79.5162 87.6093 79.6057 87.827 79.7338 88.2194C79.9634 87.4292 80.3949 86.361 80.5957 86.0712ZM83.6778 92.0461C83.2201 92.0997 82.9092 92.493 82.9614 92.939C83.0122 93.3732 83.4055 93.6841 83.8398 93.6333C84.2857 93.5811 84.5966 93.1878 84.5458 92.7536C84.4936 92.3076 84.1003 91.9967 83.6778 92.0461Z" fill="#E0E0E0"/>
<g id="text233-3">
<path id="path2" d="M45.0078 70.6022C45.166 70.8554 45.2791 71.0995 45.3559 71.3256C45.4102 71.1628 45.4328 71.0995 45.4735 71.0272C45.5594 70.8825 45.7311 70.7966 45.9346 70.7966C45.9979 70.7966 46.0702 70.8012 46.2013 70.8102V73.3464L45.8713 73.6176H46.997L46.667 73.3464V70.8102C46.7935 70.8012 46.8704 70.7966 46.9337 70.7966C47.1371 70.7966 47.3089 70.8825 47.3948 71.0272C47.4355 71.0995 47.4581 71.1628 47.5124 71.3256C47.5847 71.0995 47.7022 70.8554 47.8605 70.6022H45.0078ZM47.9237 70.6022L48.2538 70.8735V71.9449C48.0322 71.9947 47.9102 72.1167 47.8198 72.3699C47.9057 72.2478 48.0594 72.1755 48.2538 72.171V73.3464L47.9237 73.6176H49.054L48.7194 73.3464V72.171C48.8776 72.2117 49.063 72.2297 49.3071 72.2297C49.4654 72.2297 49.601 72.2207 49.7592 72.2026V73.3464L49.4247 73.6176H50.5549L50.2248 73.3464V70.8735L50.5549 70.6022H49.4247L49.7592 70.8735V71.9901C49.6326 72.0082 49.5241 72.0173 49.3659 72.0173C49.1037 72.0173 48.9093 71.9947 48.7194 71.9449V70.8735L49.054 70.6022H47.9237ZM50.799 70.6022L51.129 70.8735V71.8997C50.8578 71.8997 50.7041 72.0173 50.6362 72.2614C50.7809 72.1393 50.9256 72.0896 51.129 72.0941V73.3464L50.799 73.6176H53.403C53.1317 73.36 53.0232 73.1701 52.9509 72.8446C52.8198 73.0842 52.7294 73.2017 52.6164 73.2786C52.4762 73.3735 52.2231 73.4232 51.9066 73.4232C51.8297 73.4232 51.7664 73.4187 51.5947 73.4097V72.0941H52.2321L52.535 72.4558V71.5381L52.2321 71.8997H51.5947V70.8102C51.7664 70.8012 51.884 70.7966 52.0467 70.7966C52.5214 70.7966 52.6525 70.8735 52.8198 71.2442C52.8334 71.2713 52.8469 71.2939 52.856 71.3211C52.9735 70.9956 53.0458 70.8735 53.2764 70.6022H50.799ZM55.1751 71.1719L56.007 73.6176H56.1697L57.0422 71.199V73.3464L56.7122 73.6176H57.8379L57.5079 73.3464V70.8735L57.8379 70.6022H56.6399L56.9699 70.8735L56.2421 72.8807L55.5639 70.8735L55.894 70.6022H54.6552L54.9853 70.8735V72.7451C54.9853 73.0706 54.9627 73.2334 54.8949 73.3645C54.827 73.4956 54.7366 73.5679 54.592 73.6176H55.5685C55.4509 73.577 55.3831 73.5317 55.3153 73.4413C55.2113 73.3012 55.1751 73.1294 55.1751 72.7451V71.1719ZM60.1074 70.6022H59.0269L59.2755 70.8735L58.8687 71.9675C58.8506 71.9495 58.8189 71.9223 58.7511 71.8636C58.6743 71.7957 58.6517 71.7777 58.6064 71.7099C58.5974 71.7551 58.4844 71.9766 58.4075 72.0806C58.5703 72.0986 58.6471 72.1258 58.7692 72.2117C58.5251 73.0164 58.2538 73.4323 57.8379 73.6176H59.0133L58.9726 73.5724C58.7782 73.369 58.7376 73.2921 58.7376 73.1203C58.7376 72.9757 58.7376 72.9757 58.9546 72.3247C59.1173 72.4829 59.2846 72.709 59.488 73.039C59.5377 72.9486 59.6734 72.7722 59.7909 72.6502L59.9491 72.492L60.2746 73.3464L59.9537 73.6176H61.1381L60.7855 73.3464L60.347 72.1619C60.4464 72.1077 60.5233 72.0896 60.6499 72.0896C60.6906 72.0896 60.7177 72.0896 60.7855 72.0941C60.7267 72.0082 60.6273 71.7777 60.5956 71.6466C60.5097 71.7551 60.4012 71.841 60.2566 71.9359L59.8587 70.8735L60.1074 70.6022ZM59.4202 71.086L59.8632 72.2524C59.7819 72.3292 59.705 72.4106 59.6553 72.4694C59.5603 72.5914 59.5061 72.6592 59.488 72.6773L59.4654 72.6411C59.3027 72.4061 59.2032 72.284 59.0359 72.1032L59.4202 71.086ZM63.4121 70.6294C63.2719 70.6791 63.2041 70.6972 63.1273 70.6972C63.073 70.6972 63.0052 70.6836 62.8831 70.6429C62.6074 70.557 62.4401 70.5254 62.2276 70.5254C61.667 70.5254 61.2783 70.8825 61.2783 71.3979C61.2783 71.6104 61.3461 71.7957 61.4726 71.9404C61.6038 72.0851 61.7891 72.171 62.1191 72.2388C62.5396 72.3202 62.6752 72.3609 62.8289 72.4467C63.0233 72.5598 63.1408 72.7542 63.1408 72.9531C63.1408 73.2831 62.8741 73.5001 62.4627 73.5001C62.0875 73.5001 61.7665 73.3509 61.6128 73.1023C61.554 73.0073 61.5269 72.926 61.4726 72.6999C61.4229 72.9033 61.1878 73.3916 61.0341 73.6176C61.1969 73.5137 61.2963 73.4775 61.3868 73.4775C61.45 73.4775 61.5359 73.4911 61.6399 73.5227C62.101 73.6629 62.2502 73.6945 62.4718 73.6945C63.073 73.6945 63.5341 73.2876 63.5341 72.7542C63.5341 72.5462 63.4663 72.3609 63.3352 72.2026C63.1951 72.0399 63.0007 71.9404 62.6842 71.8636C62.1282 71.7279 62.1282 71.7279 61.988 71.6601C61.7936 71.5697 61.6942 71.425 61.6942 71.2261C61.6942 70.9323 61.9338 70.7198 62.2683 70.7198C62.535 70.7198 62.7927 70.869 62.9057 71.095C62.951 71.1809 62.9781 71.2668 63.0142 71.4205C63.1273 71.1267 63.3262 70.7334 63.4121 70.6294ZM63.602 70.6022C63.7602 70.8554 63.8732 71.0995 63.9501 71.3256C64.0043 71.1628 64.0269 71.0995 64.0676 71.0272C64.1535 70.8825 64.3253 70.7966 64.5287 70.7966C64.592 70.7966 64.6643 70.8012 64.7955 70.8102V73.3464L64.4654 73.6176H65.5911L65.2611 73.3464V70.8102C65.3877 70.8012 65.4645 70.7966 65.5278 70.7966C65.7313 70.7966 65.9031 70.8825 65.989 71.0272C66.0296 71.0995 66.0522 71.1628 66.1065 71.3256C66.1788 71.0995 66.2964 70.8554 66.4546 70.6022H63.602ZM66.5179 70.6022L66.8479 70.8735V71.8997C66.5767 71.8997 66.423 72.0173 66.3551 72.2614C66.4998 72.1393 66.6445 72.0896 66.8479 72.0941V73.3464L66.5179 73.6176H69.1219C68.8506 73.36 68.7421 73.1701 68.6698 72.8446C68.5387 73.0842 68.4483 73.2017 68.3353 73.2786C68.1951 73.3735 67.9419 73.4232 67.6255 73.4232C67.5486 73.4232 67.4853 73.4187 67.3136 73.4097V72.0941H67.951L68.2539 72.4558V71.5381L67.951 71.8997H67.3136V70.8102C67.4853 70.8012 67.6029 70.7966 67.7656 70.7966C68.2403 70.7966 68.3714 70.8735 68.5387 71.2442C68.5523 71.2713 68.5658 71.2939 68.5749 71.3211C68.6924 70.9956 68.7647 70.8735 68.9953 70.6022H66.5179ZM69.574 71.086V72.1529C69.4971 72.1574 69.4519 72.1619 69.4022 72.1619C69.375 72.1619 69.366 72.1619 69.2892 72.1574C69.2756 72.2207 69.253 72.2885 69.1897 72.4377C69.2846 72.397 69.3705 72.3835 69.574 72.3654V73.3464L69.2439 73.6176H70.3696L70.0396 73.3464V72.2976C70.1345 72.2931 70.5007 72.2298 70.6138 72.1936C70.894 72.8853 71.0116 73.3148 71.1201 74.011C71.3145 73.8573 71.6174 73.699 71.8751 73.6176C71.5315 73.36 71.0749 72.6683 70.8805 72.1167C71.3823 71.9811 71.6716 71.6918 71.6716 71.3211C71.6716 70.869 71.1879 70.5254 70.5505 70.5254C70.0848 70.5254 69.6056 70.6656 69.2439 70.9052L69.574 71.086ZM70.0396 70.8871C70.1752 70.7695 70.3109 70.7198 70.4872 70.7198C70.876 70.7198 71.1608 70.9775 71.1608 71.3256C71.1608 71.7596 70.7675 72.0399 70.0396 72.1213V70.8871ZM74.149 70.6294C74.0089 70.6791 73.9411 70.6972 73.8642 70.6972C73.81 70.6972 73.7422 70.6836 73.6201 70.6429C73.3443 70.557 73.1771 70.5254 72.9646 70.5254C72.404 70.5254 72.0152 70.8825 72.0152 71.3979C72.0152 71.6104 72.083 71.7957 72.2096 71.9404C72.3407 72.0851 72.5261 72.171 72.8561 72.2388C73.2765 72.3202 73.4121 72.3609 73.5658 72.4467C73.7602 72.5598 73.8778 72.7542 73.8778 72.9531C73.8778 73.2831 73.6111 73.5001 73.1997 73.5001C72.8244 73.5001 72.5035 73.3509 72.3497 73.1023C72.291 73.0073 72.2639 72.926 72.2096 72.6999C72.1599 72.9033 71.9248 73.3916 71.7711 73.6176C71.9338 73.5137 72.0333 73.4775 72.1237 73.4775C72.187 73.4775 72.2729 73.4911 72.3769 73.5227C72.838 73.6629 72.9872 73.6945 73.2087 73.6945C73.81 73.6945 74.2711 73.2876 74.2711 72.7542C74.2711 72.5462 74.2033 72.3609 74.0722 72.2026C73.932 72.0399 73.7376 71.9404 73.4212 71.8636C72.8651 71.7279 72.8651 71.7279 72.725 71.6601C72.5306 71.5697 72.4311 71.425 72.4311 71.2261C72.4311 70.9323 72.6707 70.7198 73.0053 70.7198C73.272 70.7198 73.5297 70.869 73.6427 71.095C73.6879 71.1809 73.715 71.2668 73.7512 71.4205C73.8642 71.1267 74.0631 70.7334 74.149 70.6294ZM76.9248 70.5254C76.093 70.5254 75.6273 71.095 75.6273 72.1167C75.6273 73.1113 76.0975 73.6945 76.9067 73.6945C77.7114 73.6945 78.1816 73.1113 78.1816 72.1122C78.1816 71.1176 77.7114 70.5254 76.9248 70.5254ZM76.8706 70.7198C77.1283 70.7198 77.3769 70.869 77.499 71.1041C77.621 71.3301 77.6708 71.6375 77.6708 72.1258C77.6708 72.5778 77.621 72.8807 77.5125 73.1158C77.404 73.3509 77.1735 73.5001 76.9248 73.5001C76.6762 73.5001 76.423 73.3419 76.31 73.1158C76.1879 72.8807 76.1382 72.5779 76.1382 72.1077C76.1382 71.6375 76.1834 71.3391 76.2964 71.1041C76.4049 70.8735 76.6355 70.7198 76.8706 70.7198ZM78.4574 70.6022L78.7874 70.8735V71.8997C78.5161 71.8997 78.3579 72.0173 78.2946 72.2614C78.4348 72.1393 78.5885 72.0851 78.7874 72.0941V73.3464L78.4574 73.6176H79.5831L79.253 73.3464V72.0941H79.8905L80.1934 72.4558V71.5381L79.8905 71.8997H79.253V70.8102C79.4248 70.8012 79.5424 70.7966 79.7051 70.7966C80.1798 70.7966 80.3109 70.8735 80.4782 71.2442C80.4917 71.2713 80.5053 71.2939 80.5144 71.3211C80.6319 70.9956 80.7042 70.8735 80.9348 70.6022H78.4574Z" fill="#2C2C2C"/>
<path id="path3" d="M50.3542 75.6325L50.6842 75.9038V76.93C50.4129 76.93 50.2592 77.0475 50.1914 77.2917C50.3361 77.1696 50.4807 77.1199 50.6842 77.1244V78.3767L50.3542 78.6479H52.9582C52.6869 78.3902 52.5784 78.2004 52.5061 77.8749C52.375 78.1145 52.2845 78.232 52.1715 78.3089C52.0314 78.4038 51.7782 78.4535 51.4618 78.4535C51.3849 78.4535 51.3216 78.449 51.1498 78.44V77.1244H51.7873L52.0902 77.4861V76.5683L51.7873 76.93H51.1498V75.8405C51.3216 75.8314 51.4392 75.8269 51.6019 75.8269C52.0766 75.8269 52.2077 75.9038 52.375 76.2745C52.3885 76.3016 52.4021 76.3242 52.4111 76.3513C52.5287 76.0258 52.601 75.9038 52.8316 75.6325H50.3542ZM54.2149 77.3866L54.8343 78.3767L54.4998 78.6479H55.6797L55.3451 78.3767L54.545 77.0973L55.1553 76.2564C55.3361 76.0032 55.5395 75.7908 55.7385 75.6325H54.8343L55.1688 75.9038L54.4319 76.921L53.799 75.9038L54.129 75.6325H52.9581L53.2927 75.9038L54.1064 77.2103L53.5052 78.0376C53.2791 78.3495 53.1842 78.4445 52.8994 78.6479H53.8352L53.5006 78.3767L54.2149 77.3866ZM58.1209 75.6325C57.9853 75.7275 57.9265 75.7501 57.8226 75.7501C57.7367 75.7501 57.6598 75.732 57.5287 75.6822C57.2484 75.5783 57.1535 75.5557 56.9455 75.5557C56.1815 75.5557 55.6299 76.2293 55.6299 77.1651C55.6299 77.6307 55.7701 78.0557 56.0187 78.336C56.2357 78.5846 56.5793 78.7248 56.9591 78.7248C57.4157 78.7248 57.7412 78.5259 57.8768 78.1732C57.9265 78.0376 57.9627 77.8568 57.9627 77.7392C57.9627 77.6443 57.9311 77.59 57.8723 77.59C57.8226 77.59 57.7999 77.6217 57.7909 77.6895C57.7457 78.223 57.4699 78.5259 57.0405 78.5259C56.4663 78.5259 56.1408 78.0014 56.1408 77.0747C56.1408 76.6271 56.2086 76.3061 56.3578 76.071C56.4753 75.8766 56.6969 75.7501 56.9093 75.7501C57.1263 75.7501 57.3614 75.8812 57.479 76.071C57.5649 76.2157 57.6146 76.3649 57.6462 76.5955C57.7954 76.2202 57.8813 76.0484 58.1209 75.6325ZM58.2927 75.6325L58.6227 75.9038V76.93C58.3515 76.93 58.1978 77.0475 58.13 77.2917C58.2746 77.1696 58.4193 77.1199 58.6227 77.1244V78.3767L58.2927 78.6479H60.8967C60.6255 78.3902 60.517 78.2004 60.4446 77.8749C60.3135 78.1145 60.2231 78.232 60.1101 78.3089C59.9699 78.4038 59.7168 78.4535 59.4003 78.4535C59.3235 78.4535 59.2602 78.449 59.0884 78.44V77.1244H59.7258L60.0287 77.4861V76.5683L59.7258 76.93H59.0884V75.8405C59.2602 75.8314 59.3777 75.8269 59.5405 75.8269C60.0152 75.8269 60.1463 75.9038 60.3135 76.2745C60.3271 76.3016 60.3407 76.3242 60.3497 76.3513C60.4672 76.0258 60.5396 75.9038 60.7701 75.6325H58.2927ZM61.0188 75.6325L61.3488 75.9038V78.3767L61.0188 78.6479H63.4781C63.3651 78.5575 63.1526 78.1551 63.0215 77.7709C62.9356 78.2591 62.7005 78.4535 62.2077 78.4535C62.0857 78.4535 61.9907 78.449 61.8144 78.44V75.9038L62.1445 75.6325H61.0188ZM63.5414 75.6325L63.8714 75.9038V78.3767L63.5414 78.6479H66.0007C65.8877 78.5575 65.6752 78.1551 65.5441 77.7709C65.4582 78.2591 65.2231 78.4535 64.7304 78.4535C64.6083 78.4535 64.5134 78.449 64.3371 78.44V75.9038L64.6671 75.6325H63.5414ZM66.064 75.6325L66.394 75.9038V76.93C66.1228 76.93 65.9691 77.0475 65.9013 77.2917C66.0459 77.1696 66.1906 77.1199 66.394 77.1244V78.3767L66.064 78.6479H68.668C68.3968 78.3902 68.2882 78.2004 68.2159 77.8749C68.0848 78.1145 67.9944 78.232 67.8814 78.3089C67.7412 78.4038 67.4881 78.4535 67.1716 78.4535C67.0948 78.4535 67.0315 78.449 66.8597 78.44V77.1244H67.4971L67.8 77.4861V76.5683L67.4971 76.93H66.8597V75.8405C67.0315 75.8314 67.149 75.8269 67.3118 75.8269C67.7864 75.8269 67.9175 75.9038 68.0848 76.2745C68.0984 76.3016 68.1119 76.3242 68.121 76.3513C68.2385 76.0258 68.3109 75.9038 68.5414 75.6325H66.064ZM70.7973 78.0738L69.6761 75.9038L70.0062 75.6325H68.7901L69.1201 75.9038V77.8658C69.1201 78.3721 69.0342 78.5439 68.7268 78.6479H69.7033C69.3959 78.5439 69.31 78.3721 69.31 77.8658V76.1343L70.6074 78.6479H70.9872V76.4146C70.9872 75.9083 71.0731 75.7365 71.3805 75.6325H70.404C70.7114 75.7365 70.7973 75.9083 70.7973 76.4146V78.0738ZM74.0659 75.6325C73.9302 75.7275 73.8715 75.7501 73.7675 75.7501C73.6816 75.7501 73.6047 75.732 73.4736 75.6822C73.1933 75.5783 73.0984 75.5557 72.8904 75.5557C72.1264 75.5557 71.5749 76.2293 71.5749 77.1651C71.5749 77.6307 71.715 78.0557 71.9637 78.336C72.1807 78.5846 72.5243 78.7248 72.904 78.7248C73.3606 78.7248 73.6861 78.5259 73.8217 78.1732C73.8715 78.0376 73.9076 77.8568 73.9076 77.7392C73.9076 77.6443 73.876 77.59 73.8172 77.59C73.7675 77.59 73.7449 77.6217 73.7358 77.6895C73.6906 78.223 73.4149 78.5259 72.9854 78.5259C72.4112 78.5259 72.0857 78.0014 72.0857 77.0747C72.0857 76.6271 72.1536 76.3061 72.3027 76.071C72.4203 75.8766 72.6418 75.7501 72.8543 75.7501C73.0713 75.7501 73.3064 75.8812 73.4239 76.071C73.5098 76.2157 73.5595 76.3649 73.5912 76.5955C73.7404 76.2202 73.8263 76.0484 74.0659 75.6325ZM74.2376 75.6325L74.5677 75.9038V76.93C74.2964 76.93 74.1427 77.0475 74.0749 77.2917C74.2196 77.1696 74.3642 77.1199 74.5677 77.1244V78.3767L74.2376 78.6479H76.8417C76.5704 78.3902 76.4619 78.2004 76.3896 77.8749C76.2585 78.1145 76.168 78.232 76.055 78.3089C75.9149 78.4038 75.6617 78.4535 75.3453 78.4535C75.2684 78.4535 75.2051 78.449 75.0333 78.44V77.1244H75.6707L75.9736 77.4861V76.5683L75.6707 76.93H75.0333V75.8405C75.2051 75.8314 75.3226 75.8269 75.4854 75.8269C75.9601 75.8269 76.0912 75.9038 76.2585 76.2745C76.272 76.3016 76.2856 76.3242 76.2946 76.3513C76.4122 76.0258 76.4845 75.9038 76.7151 75.6325H74.2376Z" fill="#2C2C2C"/>
</g>
</g>
</g>
<defs>
<linearGradient id="paint0_linear_66_388" x1="85.1135" y1="76.8558" x2="86.7249" y2="73.6635" gradientUnits="userSpaceOnUse">
<stop stop-color="#FEF59F"/>
<stop offset="0.343753" stop-color="#C69C33"/>
<stop offset="1" stop-color="#695125"/>
</linearGradient>
<linearGradient id="paint1_linear_66_388" x1="84.0601" y1="78.0607" x2="85.6794" y2="76.0998" gradientUnits="userSpaceOnUse">
<stop stop-color="#FEF59F"/>
<stop offset="0.343753" stop-color="#C69C33"/>
<stop offset="1" stop-color="#695125"/>
</linearGradient>
<linearGradient id="paint2_linear_66_388" x1="38.8904" y1="76.8558" x2="37.279" y2="73.6635" gradientUnits="userSpaceOnUse">
<stop stop-color="#FEF59F"/>
<stop offset="0.343753" stop-color="#C69C33"/>
<stop offset="1" stop-color="#695125"/>
</linearGradient>
<linearGradient id="paint3_linear_66_388" x1="39.9438" y1="78.0607" x2="38.3245" y2="76.0998" gradientUnits="userSpaceOnUse">
<stop stop-color="#FEF59F"/>
<stop offset="0.343753" stop-color="#C69C33"/>
<stop offset="1" stop-color="#695125"/>
</linearGradient>
<clipPath id="clip0_66_388">
<rect width="124" height="124" fill="white"/>
</clipPath>
</defs>
</svg>
