<svg width="429" height="555" viewBox="0 0 429 555" fill="none" xmlns="http://www.w3.org/2000/svg">
<path d="M266.586 553.094C261.784 551.801 259.372 550.411 251.67 544.505C247.871 541.591 242.926 538.143 240.681 536.842C234.705 533.379 232.729 531.728 230.972 528.731C228.099 523.827 223.1 510.216 221.191 502.1C218.195 489.358 216.796 484.239 215.5 481.276C214.834 479.755 214.428 478.371 214.598 478.202C215.183 477.617 220.414 489.62 226.858 506.336C230.811 516.589 234.547 523.296 238.98 528.097C240.615 529.868 241.015 530.015 242.785 529.498C243.873 529.18 247.136 528.907 250.038 528.89C254.795 528.865 255.718 529.066 259.435 530.944C261.703 532.089 263.639 533.309 263.738 533.654C263.847 534.034 262.491 534.218 260.307 534.119L256.695 533.957L261.501 535.54C264.144 536.41 266.97 537.675 267.781 538.35L269.255 539.578L267.371 539.612C265.556 539.646 265.589 539.693 268.26 540.905C269.785 541.597 272.225 543.262 273.683 544.606C276.784 547.464 279.738 549.121 282.627 549.622C285.538 550.127 285.399 551.013 282.153 552.65C278.823 554.329 271.908 554.527 266.586 553.094ZM212.403 536.284C208.24 534.467 204.761 532.36 200.907 529.322C200.273 528.823 199.264 526.827 198.664 524.887L197.572 521.36L196.733 523.111L195.893 524.862L195.099 522.35C194.662 520.968 194.283 518.338 194.257 516.504C194.201 512.628 193.313 512.641 192.681 516.529C192.288 518.944 192.162 519.1 191.41 518.085C190.24 516.505 189.724 512.116 190.381 509.326C190.685 508.033 190.704 507.117 190.423 507.292C190.141 507.466 189.725 508.453 189.498 509.485C189.271 510.518 188.878 511.362 188.623 511.362C188.117 511.362 186.355 504.002 185.741 499.324C185.436 497.003 184.937 496.072 183.346 494.856C179.19 491.681 171.169 483.16 167.944 478.493C156.322 461.678 153.146 442.452 158.777 423.019C160.399 417.421 165.719 405.418 166.314 406.013C166.51 406.209 166.181 407.314 165.582 408.469C163.529 412.427 161.535 421.133 161.144 427.838C159.915 448.911 168.353 468.926 186.197 487.263C192.692 493.937 193.924 494.928 196.172 495.288C198.92 495.727 201.771 497.009 204.186 498.891L205.683 500.058L203.872 500.131C202.588 500.183 202.416 500.294 203.282 500.514C205.13 500.985 209.282 503.751 209.282 504.512C209.282 504.932 208.522 505.031 207.241 504.776L205.2 504.371L207.789 505.97C210.563 507.684 212.422 510.015 212.422 511.779C212.422 512.627 212.254 512.702 211.668 512.116C211.254 511.701 210.494 511.362 209.981 511.362C209.329 511.362 209.546 511.883 210.701 513.089C213.498 516.009 215.43 521.802 213.34 521C212.56 520.701 212.609 521.038 213.595 522.747C214.266 523.911 215.016 526.136 215.261 527.69C215.647 530.135 216.562 532.95 218.375 537.267C219.044 538.86 217.849 538.663 212.403 536.284ZM256.869 520.262C253.534 516.571 251.602 513.305 248.197 505.601C243.38 494.705 239.345 489.86 224.981 477.726C213.117 467.705 208.255 461.946 203.904 452.762C200.014 444.552 198.975 439.45 198.952 428.464C198.94 421.502 199.165 418.372 199.75 417.474C200.472 416.365 200.527 416.526 200.214 418.841C199.72 422.504 200.886 432.896 202.419 438.501C205.122 448.378 211.592 459.356 217.662 464.363C222.069 467.997 223.688 468.968 234.401 474.396C244.692 479.61 244.745 479.648 242.251 479.967L239.739 480.289L243.821 481.173C247.53 481.977 251.985 484.404 251.985 485.621C251.985 485.889 250.996 485.885 249.787 485.612C248.578 485.34 247.589 485.344 247.589 485.625C247.589 485.903 248.711 486.321 250.082 486.553C253.037 487.052 255.404 488.77 256.766 491.404L257.755 493.316L256.126 492.907C254.009 492.375 254.051 493.208 256.223 494.836C257.173 495.548 258.487 497.058 259.143 498.192L260.335 500.253L258.995 499.903C257.679 499.559 257.683 499.6 259.216 502.215C260.678 504.709 260.755 505.278 260.437 511.216C260.25 514.701 259.895 518.743 259.647 520.197L259.196 522.84L256.869 520.262ZM291.434 514.788C289.125 513.289 286.964 511.551 286.631 510.926C286.298 510.301 285.823 507.882 285.574 505.551C285.326 503.22 284.884 501.312 284.592 501.312C284.3 501.312 283.752 502.513 283.375 503.981C282.998 505.449 282.61 506.932 282.514 507.276C282.418 507.621 281.939 507.197 281.451 506.334C280.86 505.291 280.566 502.822 280.572 498.957C280.576 495.762 280.429 493.148 280.242 493.148C279.733 493.148 277.948 496.928 277.277 499.428L276.687 501.626L275.742 499.428C274.937 497.556 273.973 493.878 272.284 486.24C271.959 484.769 271.904 484.749 271.425 485.926C271.143 486.617 270.88 488.454 270.841 490.008L270.769 492.834L269.43 490.322C268.394 488.38 268.08 486.65 268.045 482.695C267.997 477.387 267.581 476.8 266.223 480.127L265.426 482.081L264.025 477.362C262.633 472.673 261.239 463.153 261.809 462.231C261.973 461.965 261.846 461.748 261.531 461.748C261.214 461.748 259.367 459.754 257.425 457.317C253.445 452.321 248.702 443.277 248.599 440.486C248.561 439.468 248.351 438.746 248.131 438.881C247.37 439.348 246.906 435.638 246.554 426.266C246.262 418.501 246.5 414.144 247.906 401.46C250.98 373.738 249.545 361.75 240.308 337.97C238.752 333.964 236.087 327.904 234.387 324.503C232.687 321.102 231.383 318.232 231.491 318.124C231.957 317.659 239.314 328.836 242.322 334.578C246.842 343.209 249.234 349.502 251.376 358.403C255.054 373.685 255.445 386.045 252.87 405.691C250.807 421.441 250.689 432.369 252.509 439.23C255.471 450.391 262.84 460.388 275.53 470.456C282.382 475.892 285.983 479.294 288.886 483.072C293.478 489.05 296.201 500.179 295.83 511.453L295.63 517.513L291.434 514.788ZM335.976 505.551C334.784 503.738 332.433 499.575 330.752 496.3C326.964 488.92 322.205 482.574 314.999 475.291C308.197 468.418 302.5 463.846 291.863 456.724C277.006 446.778 271.125 441.152 265.73 431.722C262.785 426.575 259.85 418.432 259.236 413.701L258.829 410.566L260.588 414.656C269.101 434.452 283.409 448.005 312.273 463.612C322.019 468.882 326.433 471.687 328.587 473.979L330.106 475.596L327.39 474.638C323.469 473.255 323.46 473.447 327.345 475.661C331.729 478.161 334.336 480.312 335.419 482.325C336.219 483.812 336.189 483.888 334.931 483.559C333.748 483.25 333.819 483.47 335.533 485.422C336.602 486.639 337.779 488.381 338.149 489.293C339.072 491.566 339.637 508.848 338.789 508.848C338.433 508.848 337.167 507.364 335.976 505.551ZM206.083 495.079C204.857 494.069 202.686 491.729 201.259 489.879C199.139 487.131 198.557 485.77 198.084 482.452C197.765 480.218 197.469 479.167 197.426 480.117C197.383 481.067 197.111 481.844 196.82 481.844C195.912 481.844 194.839 477.166 194.786 472.979C194.739 469.264 194.678 469.098 193.963 470.712C193.539 471.67 192.997 472.259 192.758 472.02C192.129 471.391 192.227 466.163 192.912 463.773C193.277 462.501 193.277 461.862 192.912 462.087C192.589 462.287 192.325 462.841 192.325 463.318C192.325 463.795 192.002 464.386 191.606 464.63C190.785 465.138 191.288 440.081 192.188 435.686L192.703 433.174L193.091 436.628C193.726 442.279 196.513 450.091 202.052 461.748C208.213 474.713 209.901 479.759 210.35 486.554C210.666 491.336 209.816 496.916 208.772 496.916C208.518 496.916 207.308 496.09 206.083 495.079ZM103.55 492.633C93.3272 479.348 91.2837 464.674 98.9924 459.91C100.242 459.138 101.265 458.425 101.265 458.327C101.265 458.229 100.064 458.369 98.5956 458.638C97.1277 458.907 95.8291 459.03 95.7099 458.912C95.5905 458.794 95.6931 457.782 95.9401 456.663C96.2174 455.401 97.6104 453.451 99.6108 451.527L102.835 448.425L100.443 449.418C98.0664 450.404 98.0535 450.401 98.4813 449.014C99.6842 445.113 101.976 442.485 106.76 439.521C108.228 438.612 109.429 437.745 109.429 437.594C109.429 437.197 105.486 438.585 104.562 439.307C104.032 439.722 103.777 439.684 103.777 439.189C103.777 438.787 106.179 436.023 109.115 433.047L114.453 427.636V424.068C114.453 415.298 118.738 404.978 125.296 397.957C130.232 392.671 134.745 389.652 144.8 384.909C157.578 378.882 167.697 371.349 175.431 362.107C180.923 355.544 183.219 352.11 187.123 344.626C188.925 341.172 190.408 338.628 190.419 338.973C190.452 340.035 185.112 353.145 182.616 358.127C176.386 370.563 167.126 381.245 156.843 387.857C140.046 398.658 135.747 401.674 131.969 405.313C127.02 410.078 123.801 414.92 121.974 420.344C120.326 425.236 120.553 428.804 122.931 435.371C124.166 438.783 124.729 441.769 124.974 446.204C125.163 449.644 125.065 452.325 124.749 452.323C124.44 452.32 123.528 451.165 122.724 449.756C120.9 446.563 120.417 446.878 121.674 450.441C122.199 451.928 122.808 454.728 123.028 456.662L123.428 460.177L120.888 457.351L118.349 454.525L118.676 457.469C118.856 459.088 118.804 462.008 118.56 463.957C118.13 467.401 118.084 467.47 116.913 466.411C115.744 465.353 115.709 465.398 115.709 467.955C115.709 470.637 114.035 474.714 112.365 476.1C111.857 476.521 110.365 479.328 109.049 482.338C107.073 486.854 106.651 488.55 106.629 492.048C106.612 494.38 106.548 496.287 106.482 496.287C106.416 496.287 105.096 494.643 103.55 492.633ZM143.197 468.813C138.528 463.502 134.54 447.384 134.558 433.897C134.57 425.533 135.668 420.367 138.641 414.713C143.22 406.005 148.231 401.192 169.283 385.286C185.027 373.391 193.503 364.794 198.594 355.558C201.298 350.653 200.916 352.915 198.022 358.95C193.238 368.927 186.471 377.039 172.915 389.045C168.22 393.204 160.954 399.949 156.768 404.035C149.299 411.325 149.181 411.484 150.398 412.584C152.164 414.181 153.97 417.966 154.615 421.418C154.92 423.047 155.058 424.492 154.923 424.627C154.788 424.762 153.515 423.821 152.093 422.537C148.994 419.738 148.164 420.037 150.507 423.109C152.801 426.117 154.017 429.211 154.017 432.044V434.408L152.391 432.015C150.406 429.095 150.018 429.275 151.191 432.57C152.176 435.336 152.338 437.246 151.722 438.851C151.352 439.815 151.212 439.79 150.309 438.593C149.346 437.317 149.305 437.385 149.262 440.329C149.224 443.003 148.804 443.951 145.965 447.78L142.713 452.168V457.763C142.713 460.84 143.095 464.833 143.563 466.635C144.03 468.437 144.356 469.912 144.288 469.912C144.219 469.912 143.729 469.418 143.197 468.813ZM186.439 465.857C182.125 455.082 181.42 442.95 184.737 436.586C186.19 433.798 185.873 433.468 183.701 435.509L182.218 436.902L182.59 434.096C183.322 428.582 184.959 423.394 186.743 420.93C188.886 417.971 188.988 417.513 187.3 418.416C185.441 419.411 185.755 418.408 188.556 414.41C191.369 410.395 191.475 410.135 190.089 410.667C188.814 411.156 193.626 403.006 199.347 394.983C213.257 375.479 216.648 367.953 219.065 351.22C219.782 346.258 220.004 341.836 219.775 337.09C219.553 332.486 219.617 331.125 219.967 333.008C220.687 336.888 220.714 352.873 220.005 356.629C219.687 358.317 219.244 360.931 219.022 362.438C217.695 371.418 212.43 383.903 204.156 397.692C196.7 410.118 194.329 414.84 190.125 425.638C189.856 426.329 189.567 427.318 189.481 427.836C189.396 428.354 188.831 431.604 188.225 435.058C186.927 442.459 186.692 459.286 187.8 465.479C188.198 467.704 188.424 469.624 188.303 469.745C188.181 469.867 187.344 468.117 186.439 465.857ZM202.66 397.735C202.859 397.414 202.781 397.002 202.488 396.821C202.194 396.64 201.954 396.903 201.954 397.406C201.954 398.465 202.152 398.557 202.66 397.735ZM239.024 459.242C238.285 458.945 234.046 457.947 229.604 457.027C219.991 455.035 215.045 452.986 212.172 449.805C202.829 439.464 202.376 423.998 210.837 404.271C219.959 383.004 222.722 375.25 225.069 364.332C226.216 358.993 226.465 355.882 226.445 347.138C226.424 337.739 226.229 335.742 224.821 330.44C223.94 327.128 222.481 322.96 221.578 321.177C220.675 319.395 220.077 317.936 220.251 317.936C221.077 317.936 224.654 326.328 226.12 331.703C227.645 337.299 227.761 338.66 227.783 351.22C227.804 363.011 227.615 365.697 226.291 372.415C225.457 376.646 224.609 380.109 224.407 380.109C224.204 380.11 223.976 381.002 223.899 382.093C223.822 383.183 223.359 385.372 222.869 386.958C222.379 388.544 221.495 391.538 220.905 393.61C220.314 395.682 218.877 400.487 217.711 404.286C213.767 417.139 212.249 424.572 212.58 429.406C212.969 435.076 213.894 437.033 216.421 437.535C217.502 437.751 219.517 438.472 220.899 439.14L223.411 440.353L220.271 440.415C216.673 440.485 217.764 441.202 222.538 441.905C224.13 442.139 226.375 443.026 227.527 443.876C229.544 445.363 229.564 445.421 228.086 445.429C225.899 445.441 223.725 446.1 223.725 446.749C223.725 447.055 224.239 447.304 224.869 447.304C226.978 447.304 231.75 449.25 232.924 450.588C233.867 451.663 233.898 451.845 233.088 451.551C232.538 451.352 231.723 451.414 231.277 451.69C230.729 452.028 231.137 452.339 232.531 452.645C233.821 452.929 235.858 454.37 237.953 456.482C241.338 459.894 241.468 460.229 239.024 459.242ZM330.171 458.333C323.202 456.522 318.692 454.548 312.764 450.713C306.413 446.605 300.336 441.502 294.017 434.969C280.211 420.696 276.803 411.915 273.946 383.248C270.7 350.682 266.786 336.35 257.193 321.907C255.857 319.896 254.54 317.826 254.266 317.308C253.283 315.448 259.675 322.713 261.726 325.786C264.604 330.098 268.396 338.165 268.013 339.162C267.84 339.613 267.927 339.84 268.207 339.667C268.895 339.242 271.136 346.388 272.716 354.046C273.428 357.5 274.996 367.183 276.2 375.564C279.375 397.674 281.907 407.472 287.007 417.393C290.526 424.24 295.921 430.097 298.043 429.376C298.789 429.123 301.017 428.789 302.996 428.635C307.446 428.287 311.621 429.582 315.809 432.609C318.779 434.755 318.812 434.814 316.983 434.686C313.323 434.431 310.389 434.752 310.389 435.409C310.389 435.775 310.645 435.916 310.958 435.722C311.814 435.193 318.747 437.51 321.984 439.408C323.551 440.326 324.833 441.136 324.833 441.207C324.833 441.279 323.42 441.241 321.693 441.12C317.98 440.863 317.375 442.022 320.908 442.625C325.332 443.38 327.266 444.388 329.56 447.133L331.854 449.877L329.285 449.567C326.34 449.212 325.784 450.139 328.574 450.752C331.013 451.288 334.765 453.124 339.143 455.924C341.093 457.172 343.829 458.55 345.222 458.986C347.655 459.749 347.52 459.78 341.789 459.791C337.534 459.799 334.202 459.381 330.171 458.333ZM363.554 455.75C347.672 452.788 334.132 444.992 326.092 434.18C323.557 430.77 322.431 429.763 320.817 429.46C317.396 428.818 309.054 424.449 304.941 421.145C299.982 417.161 296.218 412.955 292.662 407.426C287.829 399.911 285.064 393.203 289.457 399.652C295.379 408.343 307.906 419.633 316.47 423.997C318.99 425.281 322.48 424.838 324.205 423.014C326.662 420.416 330.858 418.865 336.304 418.542C340.794 418.276 341.495 418.408 345.141 420.203C347.32 421.276 349.611 422.716 350.233 423.403C351.348 424.635 351.333 424.644 349.25 424.047C346.49 423.255 342.417 423.268 342.417 424.068C342.417 424.413 342.855 424.696 343.392 424.696C346.165 424.696 353.351 426.862 354.848 428.15L356.54 429.605L354.181 430.047C350.986 430.647 350.737 431.375 353.547 431.903C357.138 432.576 361.885 435.299 361.885 436.685C361.885 436.955 360.966 437.265 359.844 437.373L357.803 437.569L361.257 439.371C363.375 440.477 366.355 442.949 368.962 445.765C373.874 451.069 376.426 452.819 380.212 453.479L382.923 453.951L381.068 455.18C378.666 456.772 370.466 457.039 363.554 455.75ZM176.221 454.055C174.939 452.932 172.81 450.345 171.489 448.306C169.403 445.083 169.082 444.096 169.039 440.77C169.014 438.664 168.847 437.295 168.673 437.727C167.957 439.501 167.28 438.281 166.873 434.486C166.403 430.096 167.123 426.896 169.27 423.839L170.533 422.04L169.183 422.468C167.563 422.982 167.559 422.927 168.86 418.291C169.799 414.945 172.745 410.88 174.232 410.88C174.511 410.88 174.74 410.578 174.74 410.21C174.74 409.825 174.205 409.709 173.484 409.938C171.755 410.487 171.9 409.798 174.277 406.163C175.645 404.072 177.368 402.461 179.458 401.318C182.36 399.731 182.305 399.138 179.294 399.529C178.862 399.585 178.509 399.452 178.509 399.232C178.509 398.407 182.808 393.938 189.064 388.262C196.92 381.134 200.788 376.132 204.839 367.862C210.88 355.531 212.98 345.599 213.137 328.612C213.21 320.76 213.346 319.163 213.701 322.018C213.958 324.09 214.199 331.336 214.236 338.12C214.367 361.719 211.283 370.314 195.641 389.942C191.987 394.527 188.761 398.132 188.47 397.953C188.181 397.773 188.1 398.036 188.292 398.536C188.484 399.036 188.095 399.828 187.427 400.296C186.759 400.763 186.178 401.429 186.134 401.774C186.09 402.119 185.609 402.923 185.063 403.56C179.881 409.612 174.74 425.767 174.74 436C174.74 440.87 176.326 449.644 177.848 453.195C178.532 454.791 178.97 456.096 178.822 456.096C178.674 456.096 177.503 455.178 176.221 454.055ZM243.334 451.616C235.646 444.604 230.39 438.488 227.878 433.627L226.813 431.567L228.566 431.958C229.53 432.173 230.884 432.469 231.575 432.617C232.999 432.921 233.326 433.186 227.606 429.406C225.277 427.867 224.548 426.904 223.623 424.145C223 422.287 222.323 419.32 222.117 417.551L221.744 414.334L225.839 418.73L229.935 423.126L228.969 419.986C228.438 418.259 227.866 413.596 227.698 409.624C227.378 402.061 227.833 398.083 231.004 380.736C232.405 373.076 232.682 369.685 232.75 359.384C232.803 351.353 232.533 345.517 231.967 342.428C230.408 333.931 227.469 324.663 224.318 318.311C222.615 314.877 221.304 311.984 221.405 311.883C221.686 311.601 229.115 322.941 230.513 325.786C231.955 328.72 234.076 335.379 235.415 341.172C237.43 349.891 237.218 373.53 234.952 392.668C234.103 399.838 234.135 415.808 235.01 421.242C236.403 429.899 239.652 440.555 242.502 445.817C243.556 447.764 244.268 449.601 244.083 449.9C243.898 450.199 243.996 450.444 244.3 450.444C244.605 450.444 245.594 451.574 246.498 452.956C247.403 454.338 248.011 455.468 247.85 455.468C247.689 455.468 245.657 453.735 243.334 451.616ZM269.508 403.278C266.001 399.48 262.283 391.826 260.48 384.693C259.607 381.239 257.92 372.223 256.732 364.659C251.973 334.353 248.237 322.955 240.134 314.018C239.276 313.071 238.745 312.126 238.954 311.917C239.163 311.708 240.697 313.281 242.362 315.411C246.16 320.268 251.99 329.654 251.509 330.135C251.31 330.333 251.439 330.496 251.796 330.496C252.714 330.496 255.891 337.863 258.161 345.254C260.241 352.03 261.593 358.218 262.619 365.664C264.655 380.44 265.949 387.773 267.466 393.131C267.978 394.94 268.193 396.75 267.944 397.153C267.683 397.575 267.762 397.719 268.13 397.492C268.489 397.27 269.615 399.014 270.703 401.477C271.767 403.885 272.469 405.856 272.263 405.856C272.057 405.856 270.817 404.696 269.508 403.278ZM262.462 379.362C262.261 378.861 262.112 379.01 262.082 379.742C262.057 380.404 262.203 380.775 262.412 380.566C262.621 380.357 262.643 379.816 262.462 379.362ZM261.84 375.881C261.681 375.27 261.54 375.618 261.527 376.654C261.515 377.69 261.645 378.19 261.817 377.765C261.989 377.34 261.997 376.492 261.84 375.881ZM261.193 372.415C261.018 371.983 260.876 372.336 260.876 373.2C260.876 374.064 261.018 374.417 261.193 373.985C261.367 373.553 261.367 372.847 261.193 372.415ZM260.578 366.174C260.377 365.673 260.228 365.822 260.198 366.554C260.173 367.216 260.319 367.587 260.528 367.378C260.737 367.169 260.759 366.628 260.578 366.174ZM259.95 360.522C259.749 360.021 259.6 360.17 259.57 360.902C259.545 361.564 259.691 361.935 259.9 361.726C260.109 361.517 260.131 360.976 259.95 360.522ZM257.438 346.078C257.237 345.577 257.088 345.726 257.058 346.458C257.033 347.12 257.179 347.491 257.388 347.282C257.597 347.073 257.619 346.532 257.438 346.078ZM188.807 356.023C193.978 350.727 197.899 344.002 201.861 333.636C202.191 332.773 202.477 331.925 202.497 331.752C202.518 331.579 202.979 330.025 203.523 328.298C205.094 323.315 204.891 309.865 203.177 305.272C202.446 303.315 202.037 301.503 202.267 301.246C202.498 300.989 202.333 300.982 201.901 301.229C201.47 301.478 201.116 301.436 201.116 301.136C201.116 300.836 200.711 300.042 200.217 299.372C199.417 298.289 199.357 298.693 199.677 302.994C199.903 306.025 199.748 308.871 199.263 310.603C198.515 313.275 193.186 320.89 192.526 320.23C192.348 320.052 192.785 318.347 193.498 316.443C198.458 303.185 197.51 289.587 191.132 282.528C187.598 278.616 192.059 282.072 196.431 286.634C204 294.531 207.237 301.124 208.641 311.503C210.074 322.1 207.52 332.803 200.89 343.984C198.091 348.704 191.578 355.681 187.783 358.024C185.582 359.383 185.645 359.262 188.807 356.023ZM133.442 347.293C129.918 343.531 130.404 339.724 135.038 334.77C138.176 331.415 137.966 330.628 134.761 333.734C133.134 335.312 132.536 335.567 131.832 334.983C130.524 333.897 129.239 335.757 129.239 338.736C129.239 341.097 129.206 341.133 128.082 340.008C127.329 339.255 126.885 337.811 126.812 335.875C126.716 333.343 126.953 332.681 128.404 331.433C129.388 330.586 131.645 329.674 133.742 329.275C139.607 328.16 142.132 327.341 144.534 325.777C145.778 324.967 148.394 324.016 150.349 323.664C154.838 322.855 159.953 320.707 166.872 316.726L172.302 313.602L174.131 315.612C176.396 318.101 176.477 319.192 174.396 319.192C170.928 319.192 167.244 322.405 168.114 324.671C168.433 325.503 169.308 325.592 173.768 325.249C178.937 324.852 179.072 324.878 180.347 326.499C181.908 328.483 182.067 332.25 180.664 333.987C179.718 335.158 179.693 335.141 180.029 333.555C180.266 332.434 179.963 331.375 179.084 330.258C177.452 328.183 176.625 328.165 176.625 330.202C176.625 332.421 175.165 332.76 170.732 331.573C167.722 330.766 166.726 330.712 165.967 331.315C165.439 331.734 164.018 332.58 162.809 333.195C161.59 333.814 159.703 335.695 158.573 337.415C156.33 340.833 154.279 341.78 151.683 340.597L150.069 339.861L150.416 343.687C150.717 347.01 150.641 347.411 149.836 346.743C148.338 345.499 147.108 342.646 147.111 340.418C147.115 336.995 149.168 334.425 153.348 332.612C157.987 330.6 158.77 329.24 155.29 329.24C153.939 329.24 152.677 329.495 152.485 329.805C152.293 330.116 150.652 330.716 148.837 331.139C144.739 332.094 143.031 333.609 141.77 337.404C140.527 341.149 138.318 343.323 136.172 342.913C134.293 342.554 133.959 343.254 134.617 346.179C135.231 348.909 135.085 349.047 133.442 347.293ZM306.621 329.395C306.621 329.005 306.903 328.512 307.249 328.298C307.594 328.085 307.877 326.938 307.877 325.749C307.877 323.717 307.751 323.588 305.776 323.588C303.175 323.588 302.078 322.422 300.365 317.836C298.769 313.565 298.06 312.91 294.259 312.2C292.648 311.899 290.863 311.23 290.291 310.713C289 309.544 284.427 309.415 284.777 310.557C284.909 310.989 286.699 312.209 288.754 313.268C292.713 315.308 295.317 318.326 295.317 320.875C295.317 322.883 293.883 326.202 292.531 327.323C291.506 328.173 291.463 328.043 291.87 325.327C292.413 321.708 292.003 320.935 289.954 321.714C287.7 322.57 285.591 321.371 283.411 317.993C282.096 315.956 280.522 314.577 278.044 313.292C274.863 311.642 274.316 311.54 272.138 312.193C268.712 313.219 266.009 313.104 265.552 311.913C265.341 311.364 265.327 310.658 265.522 310.343C266.207 309.235 264.097 309.788 262.995 311.006C262.302 311.772 261.993 312.837 262.179 313.813C262.551 315.758 261.547 315.25 260.72 313.075C259.941 311.027 261.045 307.498 262.748 306.586C263.431 306.22 266.224 305.997 268.955 306.09C271.685 306.184 274.109 306.069 274.341 305.838C274.573 305.606 274.417 304.584 273.996 303.566C273.44 302.224 272.299 301.313 269.84 300.249C267.976 299.442 266.446 298.582 266.44 298.337C266.436 298.091 268.293 297.315 270.571 296.612L274.712 295.332L277.193 297.456C280.465 300.257 286.601 303.492 288.64 303.492C289.534 303.492 292.321 302.542 294.832 301.38C300.539 298.74 302.342 298.305 304.379 299.08C306.422 299.856 308.511 303.236 308.466 305.69C308.437 307.406 308.364 307.467 307.683 306.373C305.415 302.733 302.97 301.846 301.903 304.277C301.488 305.225 300.576 305.794 299.137 306.004L296.991 306.318L298.756 307.257C301.409 308.669 309.119 317.247 310.521 320.346C311.543 322.606 311.628 323.368 311.025 324.825C310.216 326.778 306.621 330.508 306.621 329.395ZM218.8 327.984C218.8 327.12 218.942 326.767 219.117 327.199C219.291 327.631 219.291 328.337 219.117 328.769C218.942 329.201 218.8 328.848 218.8 327.984ZM180.034 319.397C180.224 318.9 179.959 317.486 179.444 316.254C178.93 315.022 178.504 313.555 178.499 312.992C178.478 310.89 177.587 310.274 175.766 311.104C173.746 312.025 172.159 311.056 173.345 309.627C173.737 309.154 174.037 306.119 174.046 302.535C174.054 298.191 174.469 294.731 175.391 291.25C176.123 288.488 176.804 286.147 176.904 286.048C177.004 285.948 177.272 287.277 177.501 289.001C177.966 292.507 179.137 293.942 179.137 291.006C179.137 289.97 179.419 288.948 179.765 288.734C180.11 288.521 180.393 288.792 180.393 289.337C180.393 289.883 181.038 291.383 181.828 292.672C183.983 296.188 184.786 298.31 184.809 300.539C184.83 302.443 184.878 302.485 185.751 301.331C186.258 300.661 186.673 299.544 186.673 298.85C186.673 296.81 187.711 298.428 189.135 302.687C190.593 307.047 190.835 313.051 189.646 315.363C188.494 317.605 186.102 319.115 182.709 319.742C180.186 320.208 179.744 320.151 180.034 319.397ZM219.055 316.236C218.714 315.341 218.786 315.269 219.407 315.884C219.836 316.31 220.029 316.817 219.835 317.01C219.642 317.204 219.291 316.856 219.055 316.236ZM236.285 306.691C236.285 306.378 235.711 306.272 235.01 306.455C231.578 307.352 219.836 303.705 212.828 299.565L208.339 296.912L212.107 296.535C214.179 296.328 216.525 295.948 217.32 295.691C218.43 295.331 219.67 295.81 222.658 297.75C229.208 302.002 235.537 304.367 244.763 306.01L251.043 307.129L243.664 307.194C239.605 307.232 236.285 307.004 236.285 306.691ZM191.503 300.384C190.984 296.001 188.207 290.523 184.754 287.069C181.288 283.603 175.276 280.391 171.212 279.834C166.532 279.193 169.661 278.171 175.304 278.498C183.278 278.959 189.323 282.54 192.443 288.65C194.256 292.201 194.711 298.814 193.327 301.492C192.758 302.592 192.198 303.492 192.082 303.492C191.966 303.492 191.706 302.093 191.503 300.384ZM243.896 302.156C240.317 301.562 234.705 298.842 231.575 296.184L229.691 294.585L232.203 295.029C233.584 295.274 236.128 295.664 237.855 295.896C240.781 296.289 240.869 296.351 239.156 296.805L237.318 297.292L239.156 298.505C240.167 299.171 242.408 300.177 244.135 300.74C245.862 301.302 247.543 302.01 247.871 302.313C248.549 302.939 248.63 302.942 243.896 302.156ZM117.158 294.958C114.883 290.676 113.767 285.494 114.459 282.424C115.115 279.516 117.58 275.452 120.985 271.665C123.465 268.907 124.302 268.404 127.579 267.709C131.872 266.798 133.809 267.117 136.116 269.114L137.744 270.522L135.893 273.431C134.442 275.712 133.183 276.746 130.056 278.224C122.976 281.572 120.882 284.612 119.828 293.074L119.131 298.67L117.158 294.958ZM130.247 295.956C129.367 293.431 128.625 282.768 129.417 284.024C129.744 284.542 130.209 286.166 130.451 287.632C130.692 289.098 131.13 290.446 131.424 290.628C132.31 291.175 135.916 285.345 137.156 281.361C137.794 279.31 138.317 276.301 138.317 274.674V271.716L140.443 271.965C141.613 272.101 143.167 271.893 143.897 271.502C145.588 270.597 145.618 271.338 144.026 274.634C142.755 277.264 142.927 277.481 145.504 276.501C147.111 275.89 147.114 275.895 146.091 277.458C145.524 278.322 144.603 279.3 144.044 279.631C143.271 280.088 143.213 280.357 143.803 280.747C144.352 281.111 143.794 281.919 141.891 283.508C140.412 284.744 138.461 287.183 137.556 288.928C135.77 292.371 131.973 297.776 131.313 297.816C131.088 297.828 130.608 296.992 130.247 295.956ZM254.251 294.642C252.217 293.942 249.537 292.68 248.297 291.837L246.041 290.304H249.218C252.362 290.304 252.392 290.283 252.129 288.494C251.798 286.236 252.771 285.573 254.636 286.786C255.423 287.298 257.505 287.906 259.264 288.136L262.461 288.555L262.178 285.137C261.984 282.803 262.203 281.122 262.864 279.842C263.943 277.755 265.801 275.952 265.801 276.991C265.801 277.352 266.517 278.499 267.393 279.54C268.575 280.945 269.908 281.631 272.574 282.204C276.209 282.987 280.502 284.8 281.132 285.82C281.321 286.127 280.081 286.563 278.374 286.789C274.262 287.335 273.912 288.167 277.587 288.658C279.355 288.894 281.703 289.835 283.385 290.981L286.211 292.908L284.013 292.445C280.289 291.66 277.929 292.029 269.525 294.714C264.558 296.301 258.999 296.274 254.251 294.642ZM220.899 291.529C216.805 290.894 201.565 286.507 201.987 286.085C202.129 285.942 203.334 286.114 204.664 286.467C213.353 288.771 225.563 288.494 234.315 285.793C243.001 283.113 247.915 279.946 260.172 269.129C267.072 263.04 272.211 260.18 280.292 257.932C290.624 255.058 296.159 253.152 299.713 251.247L303.167 249.395L300.027 252.303C297.762 254.401 293.486 256.888 284.685 261.226L272.483 267.241L264.579 275.004C255.903 283.524 253.716 285.209 247.986 287.786C240.341 291.223 229.019 292.788 220.899 291.529ZM131.823 284.229C131.184 283.59 131.333 279 131.992 279C132.312 279 132.957 278.647 133.424 278.215C136.368 275.494 137.061 275.057 137.06 275.92C137.06 277.194 132.315 284.721 131.823 284.229ZM212.735 279.845C208.766 279.231 196.363 276.338 195.465 275.817C194.839 275.453 195.595 275.264 197.719 275.251C202.335 275.222 209.922 273.112 215.009 270.438C220.004 267.814 227.784 260.876 230.431 256.687C231.405 255.144 232.376 253.882 232.588 253.881C232.8 253.881 232.717 255.364 232.404 257.177C231.62 261.716 228.503 267.903 225.332 271.212C223.876 272.732 223.068 273.976 223.538 273.976C225.454 273.976 228.826 272.007 235.097 267.226C245.072 259.622 245.669 259.385 256.067 258.928C260.902 258.715 264.96 258.606 265.085 258.687C265.209 258.767 264.028 259.436 262.46 260.173C260.891 260.91 256.746 263.964 253.247 266.959C241.038 277.412 235.66 279.709 222.783 279.97C218.292 280.062 213.771 280.004 212.735 279.845ZM149.621 278.468C149.621 278.175 151.27 276.362 153.286 274.439C156.283 271.581 159.084 269.901 168.642 265.232C178.094 260.615 181.08 258.831 184.235 255.916C187.959 252.474 188.116 252.396 187.682 254.194C186.757 258.025 184.45 261.778 180.737 265.491L176.925 269.303L183.212 268.193C197.66 265.642 200.999 263.419 210.198 250.227C214.119 244.604 218.331 240.013 221.833 237.542L224.024 235.998L222.07 238.502C219.814 241.393 219.277 242.378 214.943 251.568C212.756 256.206 210.853 259.248 208.946 261.155C206.32 263.781 206.256 263.925 207.874 263.549C210.771 262.875 215.149 260.801 216.75 259.344L218.269 257.962L217.072 260.059C212.321 268.378 199.734 273.334 183.293 273.358C168.971 273.379 158.569 274.866 152.613 277.744C149.642 279.179 149.621 279.184 149.621 278.468ZM151.015 270.114C151.802 268.68 154.211 265.681 156.366 263.449L160.286 259.391L157.308 259.835C155.671 260.08 153.363 260.683 152.18 261.176C150.072 262.054 150.051 262.048 151.126 260.86C153.476 258.262 161.794 254.969 172.835 252.264C178.882 250.783 183.926 249.668 184.045 249.787C184.756 250.498 176.162 256.269 161.975 264.605C158.235 266.803 154.092 269.528 152.769 270.66C151.446 271.793 150.187 272.72 149.973 272.72C149.759 272.72 150.227 271.547 151.015 270.114ZM120.755 264.897C120.149 264.167 120.341 263.124 121.708 259.717C122.65 257.37 124.197 253.189 125.147 250.426C129.777 236.951 130.998 235.45 153.075 216.085C163.876 206.611 170.701 198.485 174.604 190.452L176.893 185.742L177.349 188.254C177.601 189.636 177.65 191.684 177.459 192.807C177.022 195.384 177.606 195.375 181.423 192.747C186.539 189.226 193.061 178.862 201.049 161.564C202.613 158.176 201.152 168.548 199.313 173.882C195.431 185.147 189.303 193.155 173.149 208.074C167.001 213.752 160.252 220.02 158.151 222.002L154.331 225.605L157.157 225.247C158.711 225.049 161.586 224.122 163.546 223.187C166.448 221.801 167 221.688 166.525 222.577C165.633 224.243 159.288 228.912 153.693 232.018C141.265 238.92 138.472 241.797 131.255 255.136C127.08 262.853 124.793 265.812 123.004 265.812C122.185 265.812 121.173 265.401 120.755 264.897ZM140.396 265.398C141.275 263.931 140.13 262.554 138.393 262.989C136.996 263.34 137.261 262.895 140.206 259.945C142.103 258.045 143.747 256.745 143.86 257.057C144.252 258.138 142.091 264.397 141.028 265.259C140.441 265.736 140.156 265.798 140.396 265.398ZM130.812 259.689C137.818 246.852 145.07 239.12 156.239 232.579C168.549 225.37 172.802 222.384 176.705 218.212C179.407 215.324 180.41 214.558 180.093 215.626C177.376 224.787 171.341 230.837 155.716 240.064L144.548 246.658L147.372 246.998C151.091 247.446 151.461 247.953 148.903 249.099C146.216 250.303 145.106 251.318 140.588 256.706C136.302 261.817 132.609 264.556 130.001 264.556H128.155L130.812 259.689ZM153.703 253.497C157.005 250.544 167.812 245.356 179.137 241.286C202.668 232.83 210.486 226.055 216.338 209.047L218.738 202.07L218.331 206.78C217.611 215.107 213.942 224.297 209.165 229.738C208.121 230.927 207.523 231.9 207.837 231.9C208.738 231.9 214.323 228.219 217.698 225.401C221.62 222.126 220.68 224.089 215.805 229.354C208.917 236.794 200.47 240.852 182.591 245.311C165.561 249.557 162.768 250.408 156.737 253.188L151.191 255.744L153.703 253.497ZM239.425 254.551C239.425 253.837 242.511 249.87 243.995 248.677C245.866 247.173 250.17 244.952 255.079 242.958L259.113 241.318L257.596 243.046C256.762 243.997 255.688 245.113 255.211 245.528C254.497 246.147 254.663 246.368 256.146 246.767C258.595 247.425 277.432 247.416 280.559 246.754L283.071 246.223L279.739 248.521C274.032 252.458 272.735 252.695 257.959 252.491C245.561 252.321 244.601 252.39 242.094 253.644C240.626 254.378 239.425 254.786 239.425 254.551ZM220.585 250.173C220.585 249.879 221.013 249.282 221.537 248.847C222.061 248.412 224.464 244.875 226.877 240.987C232.176 232.446 235.782 228.313 239.834 226.133C243.961 223.914 246.622 223.565 260.149 223.471C269.149 223.409 272.333 223.165 274.279 222.392C275.66 221.843 277.356 221.171 278.047 220.9C279.891 220.177 275.374 224.855 273.059 226.066C269.89 227.725 267.656 228.173 258.031 229.085C252.895 229.571 247.667 230.303 246.413 230.711C243.365 231.704 239.245 234.577 237.879 236.66L236.771 238.352L238.909 236.721C240.085 235.824 242.731 234.302 244.789 233.338C248.087 231.794 249.237 231.59 254.497 231.622C258.59 231.647 261.153 231.975 262.661 232.67L264.859 233.682L262.932 233.733C259.827 233.815 255.07 235.464 251.357 237.745C241.54 243.775 239.434 244.973 235.929 246.517C230.592 248.867 220.585 251.252 220.585 250.173ZM123.879 244.303C123.905 241.212 128.29 231.157 132.062 225.534C136.235 219.313 139.548 215.556 152.471 202.384C168.281 186.27 173.181 179.959 176.364 171.612C177.837 167.749 178.53 167.151 178.123 170.096C176.98 178.355 172.61 187.125 164.85 196.733C160.135 202.571 159.588 203.64 161.316 203.64C162.87 203.64 161.726 204.765 153.159 211.662C137.881 223.961 127.803 235.05 125.345 242.264C124.387 245.075 123.866 245.799 123.879 244.303ZM289.665 242.2C288.801 242.042 285.45 241.458 282.217 240.902C278.984 240.346 275.171 239.546 273.742 239.124L271.144 238.357L276.846 237.018C279.982 236.282 287.47 235.099 293.485 234.388C311.513 232.26 319.642 229.998 326.205 225.283C329.689 222.78 329.764 222.891 327.073 226.562C322.847 232.325 314.159 238.362 306.745 240.686C302.897 241.893 292.855 242.783 289.665 242.2ZM92.4726 239.51C90.5729 238.897 88.1708 237.952 87.1346 237.409C84.0935 235.817 77.445 230.269 72.3766 225.092C64.8232 217.378 59.3676 212.56 56.0253 210.651C54.312 209.672 53.0512 208.731 53.2234 208.559C53.3957 208.386 53.1814 208.219 52.7516 208.186C52.3199 208.152 50.6949 207.677 49.1406 207.128L46.3146 206.129L51.9666 206.418C60.4998 206.855 65.8961 208.997 74.9671 215.548C83.3769 221.622 85.9749 222.647 93.7286 222.948C100.229 223.2 102.93 222.745 113.814 219.572C114.982 219.231 114.516 219.879 111.956 222.152C106.41 227.078 101.322 230.58 98.6766 231.293C97.3159 231.659 96.3466 232.192 96.5225 232.476C97.0401 233.314 104.354 237.516 106.024 237.935C108.54 238.566 108.324 239.249 105.375 239.992C101.418 240.988 96.4817 240.804 92.4726 239.51ZM188.243 231.192C192.609 227.541 196.103 223.58 199.527 218.398C203.849 211.856 205.197 209.115 210.863 195.343C219.141 175.221 223.57 167.532 231.343 159.785L235.334 155.808L235.815 157.901C236.435 160.602 235.781 167.557 234.652 170.276C234.168 171.44 233.773 172.478 233.773 172.581C233.773 172.685 236.104 171.834 238.954 170.69C245.204 168.181 252.801 166.424 256.135 166.715L258.579 166.929L254.944 170.495C251.061 174.305 244.802 177.831 239.521 179.184L236.348 179.997L239.299 182.835L242.251 185.674L237.644 186.119C227.535 187.097 220.888 192.518 210.352 208.376C202.004 220.941 195.778 227.464 187.615 232.199C186.167 233.038 186.313 232.805 188.243 231.192ZM279.931 231.459C282.399 230.879 293.77 227.409 295.003 226.859C295.693 226.551 298.644 225.399 301.559 224.298C307.245 222.151 311.017 220.166 311.017 219.321C311.017 218.341 301.3 216.613 295.51 216.564C292.335 216.538 289.949 216.3 290.208 216.038C291.84 214.39 298.688 212.933 307.398 212.382C312.545 212.056 318.078 211.501 319.695 211.149C334.344 207.955 349.316 198.86 357.271 188.323C362 182.059 359.06 189.288 353.851 196.732C350.251 201.878 346.444 206.029 340.847 210.912C336.631 214.591 328.129 219.897 324.833 220.907C323.969 221.172 322.132 221.897 320.751 222.519C314.276 225.436 301.546 228.646 288.409 230.674C281.248 231.78 276.82 232.19 279.931 231.459ZM188.461 224.364C189.781 221.774 192.48 214.649 194.46 208.531C198.502 196.041 201.289 190.806 209.257 180.733C211.834 177.475 214.002 174.869 214.075 174.941C214.147 175.013 213.227 177.103 212.029 179.585C210.832 182.067 208.306 188.654 206.416 194.222C201.345 209.162 197.145 216.814 189.185 225.62L186.063 229.074L188.461 224.364ZM226.586 226.306C226.393 225.993 226.496 225.074 226.817 224.265C227.346 222.929 227.389 222.981 227.289 224.834C227.169 227.048 227.115 227.161 226.586 226.306ZM228.801 226.07C228.945 225.972 229.628 225.478 230.319 224.971C231.48 224.119 231.51 224.132 230.713 225.149C230.239 225.754 229.556 226.248 229.195 226.248C228.835 226.248 228.657 226.168 228.801 226.07ZM231.261 216.309C231.779 215.99 235.453 214.381 239.425 212.734C246.36 209.858 248.633 208.664 247.172 208.664C246.351 208.664 242.871 203.752 243.351 203.272C243.541 203.082 246.621 202.66 250.196 202.333C264.472 201.028 274.612 197.917 290.996 189.817C294.408 188.13 297.201 186.996 297.201 187.298C297.201 188.176 288.403 196.471 283.978 199.765C277.554 204.549 272.939 207.193 265.637 210.275C255.396 214.598 248.198 216.277 238.483 216.611C233.334 216.787 230.667 216.676 231.261 216.309ZM186.801 214.973C187.222 214.298 187.655 213.833 187.763 213.941C188.135 214.313 187.164 216.2 186.6 216.2C186.289 216.2 186.379 215.648 186.801 214.973ZM272.822 213.185C272.256 212.798 272.997 212.498 275.149 212.244C279.743 211.699 284.574 209.071 290.783 203.738C299.821 195.974 306.446 192.336 311.549 192.336C312.877 192.336 312.585 192.703 309.583 194.806C307.644 196.164 303.005 199.849 299.274 202.996C290.364 210.509 285.08 213.184 278.498 213.511C275.832 213.643 273.278 213.498 272.822 213.185ZM86.8206 212.38C83.5502 211.854 78.862 210.357 75.0525 208.621C73.5883 207.954 72.2096 207.408 71.9888 207.408C71.7682 207.408 68.685 205.586 65.1375 203.359C56.2584 197.785 49.6919 194.848 46.11 194.848C44.8167 194.848 44.6504 194.691 45.2784 194.063C45.8255 193.516 48.4807 193.282 54.039 193.291C61.4487 193.304 62.3488 193.439 66.7246 195.208C69.3151 196.255 74.5432 199.066 78.3426 201.454C87.7599 207.375 93.5041 210.267 97.7168 211.21C99.6681 211.647 101.265 212.256 101.265 212.563C101.265 213.198 91.1048 213.069 86.8206 212.38ZM184.789 208.036C184.789 207.691 185.229 207.408 185.768 207.408C186.306 207.408 186.572 207.691 186.359 208.036C186.145 208.381 185.705 208.664 185.38 208.664C185.055 208.664 184.789 208.381 184.789 208.036ZM309.51 206.411C315.293 203.356 321.383 198.192 330.173 188.887C335.18 183.586 340.558 178.543 342.671 177.167C344.711 175.839 346.042 174.752 345.629 174.752C344.241 174.752 340.179 177.141 334.853 181.09C326.329 187.41 324.269 188.271 317.947 188.157C314.587 188.097 311.063 187.587 308.505 186.792L304.423 185.524L307.877 185.465C309.776 185.432 313.241 185.002 315.576 184.507C324.908 182.529 328.523 180.594 344.301 169.13C352.63 163.077 359.15 159.849 374.11 154.369C385.242 150.291 392.241 147.056 397.053 143.766C400.964 141.092 405.597 136.679 407.177 134.123C407.904 132.945 408.627 132.11 408.783 132.266C409.218 132.7 405.181 139.584 404.492 139.584C404.159 139.584 404.03 139.816 404.205 140.1C404.687 140.88 397.534 148.531 392.448 152.676C387.238 156.921 385.509 158.044 373.188 165.195C357.811 174.119 359.292 172.99 337.011 192.767C329.877 199.099 322.47 203.971 317.61 205.528C316.229 205.97 314.033 206.716 312.731 207.184C311.429 207.653 309.479 208.036 308.398 208.036C306.484 208.036 306.512 207.994 309.51 206.411ZM328.681 195.633C329.462 194.637 329.44 194.615 328.444 195.396C327.839 195.87 327.345 196.365 327.345 196.495C327.345 197.012 327.86 196.679 328.681 195.633ZM106.853 206.499C101.762 205.095 97.4122 202.74 87.1346 195.824C76.0906 188.393 73.3843 186.878 67.3391 184.745C63.4715 183.38 62.3711 183.307 45.0586 183.269L26.8466 183.232L22.7646 181.499C17.4198 179.23 12.8917 175.761 10.3616 171.996C7.867 168.285 7.72498 167.044 10.0477 169.253C12.5665 171.648 17.7596 174.062 22.6069 175.09C27.4694 176.121 32.3066 175.827 40.3488 174.011C58.1118 170 60.6849 169.594 66.0967 169.942C75.2937 170.533 81.4675 173.345 95.2987 183.244C104.176 189.597 112.174 194.85 112.971 194.85C113.209 194.85 112.068 193.533 110.435 191.923C104.741 186.309 101.125 179.248 100.312 172.151L99.9269 168.788L101.32 170.672C102.086 171.708 105.012 174.83 107.822 177.61C116.016 185.717 127.316 190.859 139.596 192.069C143.779 192.481 144.069 192.599 142.971 193.437C140.405 195.397 130.545 199.832 127.86 200.235C125.193 200.635 125.056 200.752 125.443 202.296C125.669 203.196 125.903 204.198 125.962 204.524C126.022 204.849 124.799 205.616 123.245 206.228C119.86 207.562 111.221 207.703 106.853 206.499ZM17.0198 201.511C12.6314 199.943 9.75257 196.934 7.7293 191.801L6.4552 188.569L10.0483 191.495C16.269 196.562 21.901 198.188 28.4018 196.794C30.2378 196.4 31.89 196.228 32.0734 196.412C32.6442 196.982 28.8346 200.61 26.7098 201.519C24.2009 202.593 20.0389 202.589 17.0198 201.511ZM235.343 201.901C234.306 201.805 231.381 201.283 228.843 200.742C226.304 200.201 223.69 199.899 223.034 200.071C221.185 200.554 221.609 199.6 224.339 197.134C227.531 194.249 229.986 193.236 238.424 191.319C242.192 190.463 245.819 189.471 246.485 189.115C247.151 188.758 247.835 188.605 248.004 188.775C248.702 189.472 241.089 194.418 237.258 195.757C234.285 196.796 233.355 197.37 233.924 197.816C235.406 198.975 238.979 199.872 242.187 199.891C244.699 199.908 245.15 200.051 244.275 200.56C242.874 201.375 237.832 202.132 235.343 201.901ZM260.357 191.699C258.918 191.405 256.657 190.607 255.333 189.928L252.927 188.693L256.067 188.282C257.794 188.057 261.326 187.414 263.917 186.855L268.627 185.838L266.016 185.362C264.581 185.1 262.179 184.25 260.678 183.474L257.951 182.062L263.121 181.244C269.744 180.195 274.217 178.692 284.368 174.106C293.81 169.841 302.06 165.396 305.679 162.626C309.9 159.395 310.216 159.21 309.084 160.633C298.712 173.678 289.861 181.903 280.873 186.853C273.392 190.972 265.692 192.791 260.357 191.699ZM144.911 181.614C139.03 178.03 128.685 173.693 115.128 169.129C103.542 165.228 98.9866 163.026 96.3926 160.071L94.4554 157.865L93.7755 159.816C93.4015 160.888 92.3563 162.735 91.4528 163.92L89.8101 166.074L88.7265 163.662C85.263 155.953 76.3363 145.952 68.2946 140.769C65.8768 139.211 59.5183 135.587 54.1646 132.714C43.4046 126.941 40.3782 125.027 35.4356 120.869C29.4171 115.805 24.5825 108.178 23.3835 101.856C23.0398 100.044 22.8669 98.4524 22.999 98.32C23.1314 98.1876 23.9746 99.3331 24.8727 100.866C27.2151 104.863 31.0915 107.108 41.3509 110.412C55.7827 115.059 63.4965 119.215 69.6573 125.66L72.9042 129.056L72.2952 126.346C71.3626 122.195 67.7072 115.79 64.0522 111.902C62.2406 109.976 57.5085 105.651 53.5364 102.291C42.6382 93.0753 37.5902 86.6825 33.8903 77.412C32.1056 72.9403 30.4055 65.0048 29.9885 59.2L29.6049 53.862L31.2115 58.4321C34.6953 68.3425 38.1157 72.1355 51.5333 80.968C57.5425 84.9237 63.878 89.4862 65.6122 91.107C72.1105 97.1806 76.0914 104.148 82.8082 121.205C87.3416 132.717 90.8133 140.016 94.1413 145.03C98.8868 152.18 108.018 159 116.65 161.841C131.504 166.73 141.825 172.208 146.077 177.459C148.191 180.07 150.528 184.111 150.138 184.482C150.026 184.589 147.674 183.298 144.911 181.614ZM307.663 177.362C314.099 172.252 318.058 166.84 320.14 160.308C322.962 151.454 329.537 141.436 336.34 135.624C339.364 133.041 347.479 127.652 348.346 127.652C348.511 127.652 347.312 129.418 345.681 131.577C344.049 133.736 341.834 137.622 340.758 140.212C337.542 147.954 337.543 148.192 340.783 144.951C348.534 137.2 359.268 132.837 386.376 126.417C400.142 123.157 407.202 120.004 417.338 112.592C419.836 110.765 413.717 118.576 408.696 123.622C402.905 129.443 396.539 133.911 387.784 138.299C381.461 141.468 377.219 143.192 360.628 149.336C341.439 156.441 332.546 161.157 321.026 170.336C314.312 175.686 307.593 179.776 305.521 179.776C305.027 179.776 305.991 178.69 307.663 177.362ZM261.719 174.124C261.932 173.779 262.467 173.496 262.908 173.496C263.348 173.496 266.511 172.09 269.936 170.371L276.163 167.246L271.649 167.622C267.013 168.009 260.147 167.458 260.151 166.7C260.155 166.021 265.106 164.181 269.883 163.084C283.316 159.998 287.067 158.875 292.444 156.328C295.701 154.785 299.658 152.634 301.238 151.547C304.279 149.455 304.78 149.625 303.049 152.161C297.135 160.825 284.218 170.548 274.683 173.512C270.418 174.837 261.003 175.282 261.719 174.124ZM80.7949 165.893C80.1369 165.166 78.4818 164 77.1168 163.304C69.1612 159.244 61.0064 158.213 51.2579 160.035C47.8483 160.673 42.6338 161.18 39.6702 161.162C34.9501 161.133 33.8679 160.905 30.9458 159.315C27.5531 157.468 25.1181 154.519 24.4003 151.388L24.0112 149.689L26.685 150.903C30.2568 152.524 41.001 152.576 40.9688 150.972C40.9646 150.753 39.3766 149.585 37.4403 148.376C29.7694 143.587 26.3941 137.002 28.1847 130.321C28.6874 128.445 29.3041 128.539 30.2524 130.635C31.6691 133.767 36.0312 138.889 38.9001 140.79C40.452 141.818 45.7225 143.984 50.6123 145.605C62.8235 149.652 67.2603 151.976 74.6692 158.206C78.2299 161.2 83.5121 167.216 82.5806 167.216C82.2567 167.216 81.4529 166.621 80.7949 165.893ZM263.297 160.762C264.51 159.649 267.265 157.207 269.419 155.335C271.572 153.463 273.2 151.798 273.036 151.634C272.597 151.196 265.487 153.876 260.62 156.316C258.288 157.484 256.381 158.187 256.381 157.877C256.381 157.002 261.131 152.921 265.245 150.263C270.005 147.186 277.152 144.614 289.721 141.454C305.14 137.577 311.393 134.878 317.59 129.423C320.233 127.097 320.541 126.961 320.113 128.311C318.126 134.577 306.982 144.165 295.722 149.296C293.161 150.463 287.006 152.83 282.044 154.556C272.039 158.035 263.928 161.301 263.01 162.22C262.68 162.55 262.113 162.812 261.75 162.803C261.387 162.795 262.084 161.875 263.297 160.762ZM117.549 151.673C113.532 147.291 110.275 140.537 109.484 134.948C108.801 130.124 109.542 126.203 112.566 118.653C113.649 115.948 115.042 111.74 115.661 109.302L116.787 104.868L117.818 107.894C119.125 111.732 119.165 121.371 117.907 129.536C116.238 140.362 116.946 147.975 120.095 153.07C120.847 154.288 121.327 155.284 121.161 155.284C120.995 155.284 119.369 153.659 117.549 151.673ZM240.764 154.163C241.455 152.31 266.221 132.741 283.071 120.736C325.758 90.32 345.828 71.1303 359.853 47.3207C366.275 36.4191 372.243 21.5077 376.026 6.91123C376.99 3.19386 377.864 0.237667 377.968 0.342036C378.072 0.446237 377.891 4.73934 377.565 9.88199C375.684 39.5608 366.17 67.7171 349.654 92.484C344.81 99.7484 336.699 110.14 335.542 110.564C335.269 110.664 335.135 110.099 335.246 109.308C335.356 108.517 335.581 106.246 335.746 104.26L336.046 100.65L333.684 103.632C330.044 108.227 321.889 115.619 315.685 119.948C300.892 130.27 296.573 133.201 296.573 132.918C296.573 132.75 299.345 128.458 302.733 123.381C306.122 118.304 309.133 113.752 309.426 113.265C309.719 112.779 307.724 114.217 304.992 116.462C297.237 122.836 286.275 130.135 275.221 136.285C273.321 137.342 270.638 138.833 269.258 139.599C267.878 140.365 261.52 143.679 255.128 146.963C248.736 150.248 242.838 153.351 242.021 153.858C241.203 154.366 240.638 154.503 240.764 154.163ZM105.429 144.377C101.626 137.889 99.4017 128.945 97.478 112.413C96.1646 101.125 94.7634 92.4598 93.6464 88.716C92.3612 84.4087 91.0386 81.18 90.5593 81.18C89.6913 81.18 87.5043 86.4511 87.3417 88.9349L87.1837 91.3518L85.9892 89.8769C84.0071 87.4294 80.7882 80.5519 79.0595 75.0704C75.6972 64.4092 75.4482 53.2048 78.325 42.0155C79.6052 37.0365 82.1035 30.312 82.6731 30.312C82.7773 30.312 82.6084 31.9327 82.2979 33.9136C81.041 41.9284 83.8894 49.9925 92.8929 63.91C99.561 74.2174 100.316 75.6222 102.253 81.316C104.811 88.838 105.26 94.3942 104.802 112.89C104.379 129.955 104.772 136.859 106.574 143.823C107.042 145.636 107.338 147.12 107.231 147.12C107.124 147.12 106.313 145.886 105.429 144.377ZM331.113 127.691C334.892 124.538 341.644 120.54 352.433 115.065C373.612 104.317 378.996 99.8063 393.395 80.7434C407.944 61.4829 414.625 54.8746 423.871 50.6027C428.721 48.3618 430.438 48.1244 427.373 50.1183C421.116 54.1893 413.29 63.5897 401.993 80.6035C392.052 95.5743 388.302 100.643 383.328 105.829C381.092 108.16 379.444 110.068 379.667 110.068C379.889 110.068 382.832 108.976 386.207 107.641C389.582 106.307 393.897 104.712 395.797 104.098C401.777 102.164 407.146 99.3271 409.998 96.5943C411.513 95.1429 412.753 94.3483 412.753 94.8286C412.753 96.7781 409.329 102.741 406.318 106.036C398.006 115.13 387.916 118.986 367.851 120.734C349.237 122.355 340.637 123.93 334.359 126.866C329.49 129.142 329.321 129.185 331.113 127.691ZM89.1185 117.356C86.8124 112.062 82.029 105.497 69.8076 90.8507C57.3641 75.9383 52.2375 63.0895 54.1668 51.6511C54.6637 48.7049 55.8876 45.2217 57.6637 41.6984C60.413 36.2444 65.2885 28.9151 64.6113 31.254C62.4785 38.6206 62.1861 40.9687 62.4997 48.21C63.0328 60.5202 66.202 69.3973 77.0969 89.0968C83.9429 101.475 87.1695 108.239 89.5967 115.3C91.729 121.503 91.4492 122.706 89.1185 117.356ZM16.2761 116.287C8.17822 110.924 0.788553 98.506 0.802755 90.286C0.805906 88.4623 0.86325 88.4993 2.59744 91.4448C3.58273 93.1183 6.75718 97.2046 9.65174 100.525C17.7792 109.85 20.2526 113.608 20.2526 116.631C20.2526 118.682 19.8366 118.646 16.2761 116.287ZM354.349 100.977C354.349 100.176 362.365 85.2153 366.134 78.982C372.083 69.1451 375.606 64.886 389.51 50.722C404.329 35.6268 408.334 30.6611 412.109 22.6969C414.841 16.9342 415.108 17.398 413.701 25.4646C411.946 35.5277 407.301 46.009 400.57 55.0951C395.703 61.6653 385.459 71.7939 376.012 79.3763C369.179 84.8606 363.575 90.4471 357.159 98.1709C354.23 101.697 354.349 101.578 354.349 100.977Z" fill="#FFAF61"/>
</svg>
